# MagicaVoxel @ Ephtracy

# group
o 

# material
mtllib Block.mtl
usemtl palette

# normals
vn 1 0 0
vn -1 0 0
vn 0 0 -1
vn 0 0 1
vn 0 -1 0
vn 0 1 0

# texcoords
vt 0.306641 0.5
vt 0.845703 0.5
vt 0.849609 0.5
vt 0.857422 0.5
vt 0.861328 0.5
vt 0.865234 0.5
vt 0.876953 0.5
vt 0.880859 0.5

# verts
v 0.8 0.1 -0.6
v 0.8 0.1 0.6
v 0.8 0.2 -0.7
v 0.8 0.2 -0.6
v 0.8 0.2 -0.3
v 0.8 0.2 0.3
v 0.8 0.2 0.6
v 0.8 0.2 0.7
v 0.8 0.3 -0.4
v 0.8 0.3 -0.3
v 0.8 0.3 0.3
v 0.8 0.3 0.4
v 0.8 0.4 -0.5
v 0.8 0.4 -0.4
v 0.8 0.4 -0.3
v 0.8 0.4 -0.2
v 0.8 0.4 -0.1
v 0.8 0.4 0.1
v 0.8 0.4 0.2
v 0.8 0.4 0.3
v 0.8 0.4 0.4
v 0.8 0.4 0.5
v 0.8 0.5 -0.3
v 0.8 0.5 -0.2
v 0.8 0.5 -0.1
v 0.8 0.5 0.1
v 0.8 0.5 0.2
v 0.8 0.5 0.3
v 0.8 0.6 -0.2
v 0.8 0.6 -0.1
v 0.8 0.6 0.1
v 0.8 0.6 0.2
v 0.8 0.7 -0.2
v 0.8 0.7 -0.1
v 0.8 0.7 0.1
v 0.8 0.7 0.2
v 0.8 0.8 -0.3
v 0.8 0.8 -0.2
v 0.8 0.8 -0.1
v 0.8 0.8 0.1
v 0.8 0.8 0.2
v 0.8 0.8 0.3
v 0.8 0.9 -0.4
v 0.8 0.9 -0.3
v 0.8 0.9 -0.2
v 0.8 0.9 -0.1
v 0.8 0.9 0.1
v 0.8 0.9 0.2
v 0.8 0.9 0.3
v 0.8 0.9 0.4
v 0.8 1 -0.5
v 0.8 1 -0.4
v 0.8 1 -0.3
v 0.8 1 -0.2
v 0.8 1 -0.1
v 0.8 1 0.1
v 0.8 1 0.2
v 0.8 1 0.3
v 0.8 1 0.4
v 0.8 1 0.5
v 0.8 1.1 -0.4
v 0.8 1.1 -0.3
v 0.8 1.1 -0.2
v 0.8 1.1 -0.1
v 0.8 1.1 0.1
v 0.8 1.1 0.2
v 0.8 1.1 0.3
v 0.8 1.1 0.4
v 0.8 1.2 -0.3
v 0.8 1.2 0.3
v 0.8 1.3 -0.7
v 0.8 1.3 0.2
v 0.8 1.3 0.3
v 0.8 1.3 0.7
v 0.8 1.4 -0.7
v 0.8 1.4 0.2
v 0.8 1.4 0.3
v 0.8 1.4 0.7
v 0.8 1.5 -0.7
v 0.8 1.5 -0.6
v 0.8 1.5 0.6
v 0.8 1.5 0.7
v 0.8 1.6 -0.6
v 0.8 1.6 0.6
v 0.7 0 -0.6
v 0.7 0 0.6
v 0.7 0.1 -0.7
v 0.7 0.1 -0.6
v 0.7 0.1 0.6
v 0.7 0.1 0.7
v 0.7 0.2 -0.8
v 0.7 0.2 -0.7
v 0.7 0.2 -0.6
v 0.7 0.2 0.6
v 0.7 0.2 0.7
v 0.7 0.2 0.8
v 0.7 1.3 -0.8
v 0.7 1.3 -0.7
v 0.7 1.3 0.7
v 0.7 1.3 0.8
v 0.7 1.4 -0.8
v 0.7 1.4 -0.7
v 0.7 1.4 0.7
v 0.7 1.4 0.8
v 0.7 1.5 -0.8
v 0.7 1.5 -0.7
v 0.7 1.5 -0.6
v 0.7 1.5 0.6
v 0.7 1.5 0.7
v 0.7 1.5 0.8
v 0.7 1.6 -0.7
v 0.7 1.6 -0.6
v 0.7 1.6 0.6
v 0.7 1.6 0.7
v 0.6 0 -0.7
v 0.6 0 -0.6
v 0.6 0 0.6
v 0.6 0 0.7
v 0.6 0.1 -0.8
v 0.6 0.1 -0.7
v 0.6 0.1 -0.6
v 0.6 0.1 0.6
v 0.6 0.1 0.7
v 0.6 0.1 0.8
v 0.6 0.2 -0.8
v 0.6 0.2 -0.7
v 0.6 0.2 0.7
v 0.6 0.2 0.8
v 0.6 1.5 -0.8
v 0.6 1.5 -0.7
v 0.6 1.5 0.7
v 0.6 1.5 0.8
v 0.6 1.6 -0.8
v 0.6 1.6 -0.7
v 0.6 1.6 0.7
v 0.6 1.6 0.8
v -0.6 0 -0.7
v -0.6 0 -0.6
v -0.6 0 0.6
v -0.6 0 0.7
v -0.6 0.1 -0.8
v -0.6 0.1 -0.7
v -0.6 0.1 -0.6
v -0.6 0.1 0.6
v -0.6 0.1 0.7
v -0.6 0.1 0.8
v -0.6 0.2 -0.8
v -0.6 0.2 -0.7
v -0.6 0.2 0.7
v -0.6 0.2 0.8
v -0.6 1.5 -0.8
v -0.6 1.5 -0.7
v -0.6 1.5 0.7
v -0.6 1.5 0.8
v -0.6 1.6 -0.8
v -0.6 1.6 -0.7
v -0.6 1.6 0.7
v -0.6 1.6 0.8
v -0.7 0 -0.6
v -0.7 0 0.6
v -0.7 0.1 -0.7
v -0.7 0.1 -0.6
v -0.7 0.1 0.6
v -0.7 0.1 0.7
v -0.7 0.2 -0.8
v -0.7 0.2 -0.7
v -0.7 0.2 -0.6
v -0.7 0.2 0.6
v -0.7 0.2 0.7
v -0.7 0.2 0.8
v -0.7 1.3 -0.8
v -0.7 1.3 -0.7
v -0.7 1.3 0.7
v -0.7 1.3 0.8
v -0.7 1.4 -0.8
v -0.7 1.4 -0.7
v -0.7 1.4 0.7
v -0.7 1.4 0.8
v -0.7 1.5 -0.8
v -0.7 1.5 -0.7
v -0.7 1.5 -0.6
v -0.7 1.5 0.6
v -0.7 1.5 0.7
v -0.7 1.5 0.8
v -0.7 1.6 -0.7
v -0.7 1.6 -0.6
v -0.7 1.6 0.6
v -0.7 1.6 0.7
v -0.8 0.1 -0.6
v -0.8 0.1 0.6
v -0.8 0.2 -0.7
v -0.8 0.2 -0.6
v -0.8 0.2 0.6
v -0.8 0.2 0.7
v -0.8 1.3 -0.7
v -0.8 1.3 -0.3
v -0.8 1.3 -0.2
v -0.8 1.3 0.7
v -0.8 1.4 -0.7
v -0.8 1.4 -0.3
v -0.8 1.4 -0.2
v -0.8 1.4 0.7
v -0.8 1.5 -0.7
v -0.8 1.5 -0.6
v -0.8 1.5 0.6
v -0.8 1.5 0.7
v -0.8 1.6 -0.6
v -0.8 1.6 0.6
v 0.7 0.2 -0.8
v 0.7 1.3 -0.8
v 0.7 1.4 -0.8
v 0.7 1.5 -0.8
v 0.6 0.1 -0.8
v 0.6 0.2 -0.8
v 0.6 1.5 -0.8
v 0.6 1.6 -0.8
v -0.6 0.1 -0.8
v -0.6 0.2 -0.8
v -0.6 1.5 -0.8
v -0.6 1.6 -0.8
v -0.7 0.2 -0.8
v -0.7 1.3 -0.8
v -0.7 1.4 -0.8
v -0.7 1.5 -0.8
v 0.8 0.2 -0.7
v 0.8 1.3 -0.7
v 0.8 1.4 -0.7
v 0.8 1.5 -0.7
v 0.7 0.1 -0.7
v 0.7 0.2 -0.7
v 0.7 1.3 -0.7
v 0.7 1.4 -0.7
v 0.7 1.5 -0.7
v 0.7 1.6 -0.7
v 0.6 0 -0.7
v 0.6 0.1 -0.7
v 0.6 0.2 -0.7
v 0.6 1.5 -0.7
v 0.6 1.6 -0.7
v -0.6 0 -0.7
v -0.6 0.1 -0.7
v -0.6 0.2 -0.7
v -0.6 1.5 -0.7
v -0.6 1.6 -0.7
v -0.7 0.1 -0.7
v -0.7 0.2 -0.7
v -0.7 1.3 -0.7
v -0.7 1.4 -0.7
v -0.7 1.5 -0.7
v -0.7 1.6 -0.7
v -0.8 0.2 -0.7
v -0.8 1.3 -0.7
v -0.8 1.4 -0.7
v -0.8 1.5 -0.7
v 0.8 0.1 -0.6
v 0.8 0.2 -0.6
v 0.8 1.5 -0.6
v 0.8 1.6 -0.6
v 0.7 0 -0.6
v 0.7 0.1 -0.6
v 0.7 0.2 -0.6
v 0.7 1.5 -0.6
v 0.7 1.6 -0.6
v 0.6 0 -0.6
v 0.6 0.1 -0.6
v -0.6 0 -0.6
v -0.6 0.1 -0.6
v -0.7 0 -0.6
v -0.7 0.1 -0.6
v -0.7 0.2 -0.6
v -0.7 1.5 -0.6
v -0.7 1.6 -0.6
v -0.8 0.1 -0.6
v -0.8 0.2 -0.6
v -0.8 1.5 -0.6
v -0.8 1.6 -0.6
v 0.8 0.1 0.6
v 0.8 0.2 0.6
v 0.8 1.5 0.6
v 0.8 1.6 0.6
v 0.7 0 0.6
v 0.7 0.1 0.6
v 0.7 0.2 0.6
v 0.7 1.5 0.6
v 0.7 1.6 0.6
v 0.6 0 0.6
v 0.6 0.1 0.6
v -0.6 0 0.6
v -0.6 0.1 0.6
v -0.7 0 0.6
v -0.7 0.1 0.6
v -0.7 0.2 0.6
v -0.7 1.5 0.6
v -0.7 1.6 0.6
v -0.8 0.1 0.6
v -0.8 0.2 0.6
v -0.8 1.5 0.6
v -0.8 1.6 0.6
v 0.8 0.2 0.7
v 0.8 1.3 0.7
v 0.8 1.4 0.7
v 0.8 1.5 0.7
v 0.7 0.1 0.7
v 0.7 0.2 0.7
v 0.7 1.3 0.7
v 0.7 1.4 0.7
v 0.7 1.5 0.7
v 0.7 1.6 0.7
v 0.6 0 0.7
v 0.6 0.1 0.7
v 0.6 0.2 0.7
v 0.6 1.5 0.7
v 0.6 1.6 0.7
v -0.6 0 0.7
v -0.6 0.1 0.7
v -0.6 0.2 0.7
v -0.6 1.5 0.7
v -0.6 1.6 0.7
v -0.7 0.1 0.7
v -0.7 0.2 0.7
v -0.7 1.3 0.7
v -0.7 1.4 0.7
v -0.7 1.5 0.7
v -0.7 1.6 0.7
v -0.8 0.2 0.7
v -0.8 1.3 0.7
v -0.8 1.4 0.7
v -0.8 1.5 0.7
v 0.7 0.2 0.8
v 0.7 1.3 0.8
v 0.7 1.4 0.8
v 0.7 1.5 0.8
v 0.6 0.1 0.8
v 0.6 0.2 0.8
v 0.6 1.5 0.8
v 0.6 1.6 0.8
v 0 1.3 0.8
v 0 1.4 0.8
v -0.2 1.3 0.8
v -0.2 1.4 0.8
v -0.6 0.1 0.8
v -0.6 0.2 0.8
v -0.6 1.5 0.8
v -0.6 1.6 0.8
v -0.7 0.2 0.8
v -0.7 1.3 0.8
v -0.7 1.4 0.8
v -0.7 1.5 0.8
v 0.6 0 -0.7
v -0.6 0 -0.7
v 0.7 0 -0.6
v 0.6 0 -0.6
v -0.6 0 -0.6
v -0.7 0 -0.6
v 0.7 0 0.6
v 0.6 0 0.6
v -0.6 0 0.6
v -0.7 0 0.6
v 0.6 0 0.7
v -0.6 0 0.7
v 0.6 0.1 -0.8
v -0.6 0.1 -0.8
v 0.7 0.1 -0.7
v 0.6 0.1 -0.7
v -0.6 0.1 -0.7
v -0.7 0.1 -0.7
v 0.8 0.1 -0.6
v 0.7 0.1 -0.6
v 0.6 0.1 -0.6
v -0.6 0.1 -0.6
v -0.7 0.1 -0.6
v -0.8 0.1 -0.6
v 0.8 0.1 0.6
v 0.7 0.1 0.6
v 0.6 0.1 0.6
v -0.6 0.1 0.6
v -0.7 0.1 0.6
v -0.8 0.1 0.6
v 0.7 0.1 0.7
v 0.6 0.1 0.7
v -0.6 0.1 0.7
v -0.7 0.1 0.7
v 0.6 0.1 0.8
v -0.6 0.1 0.8
v 0.7 0.2 -0.8
v 0.6 0.2 -0.8
v -0.6 0.2 -0.8
v -0.7 0.2 -0.8
v 0.8 0.2 -0.7
v 0.7 0.2 -0.7
v 0.6 0.2 -0.7
v -0.6 0.2 -0.7
v -0.7 0.2 -0.7
v -0.8 0.2 -0.7
v 0.8 0.2 -0.6
v 0.7 0.2 -0.6
v -0.7 0.2 -0.6
v -0.8 0.2 -0.6
v 0.8 0.2 0.6
v 0.7 0.2 0.6
v -0.7 0.2 0.6
v -0.8 0.2 0.6
v 0.8 0.2 0.7
v 0.7 0.2 0.7
v 0.6 0.2 0.7
v -0.6 0.2 0.7
v -0.7 0.2 0.7
v -0.8 0.2 0.7
v 0.7 0.2 0.8
v 0.6 0.2 0.8
v -0.6 0.2 0.8
v -0.7 0.2 0.8
v 0.7 1.5 -0.8
v 0.6 1.5 -0.8
v -0.6 1.5 -0.8
v -0.7 1.5 -0.8
v 0.8 1.5 -0.7
v 0.7 1.5 -0.7
v 0.6 1.5 -0.7
v -0.6 1.5 -0.7
v -0.7 1.5 -0.7
v -0.8 1.5 -0.7
v 0.8 1.5 -0.6
v 0.7 1.5 -0.6
v -0.7 1.5 -0.6
v -0.8 1.5 -0.6
v 0.8 1.5 0.6
v 0.7 1.5 0.6
v -0.7 1.5 0.6
v -0.8 1.5 0.6
v 0.8 1.5 0.7
v 0.7 1.5 0.7
v 0.6 1.5 0.7
v -0.6 1.5 0.7
v -0.7 1.5 0.7
v -0.8 1.5 0.7
v 0.7 1.5 0.8
v 0.6 1.5 0.8
v -0.6 1.5 0.8
v -0.7 1.5 0.8
v 0.6 1.6 -0.8
v -0.6 1.6 -0.8
v 0.7 1.6 -0.7
v 0.6 1.6 -0.7
v 0.3 1.6 -0.7
v 0.1 1.6 -0.7
v -0.4 1.6 -0.7
v -0.5 1.6 -0.7
v -0.6 1.6 -0.7
v -0.7 1.6 -0.7
v 0.8 1.6 -0.6
v 0.7 1.6 -0.6
v 0.6 1.6 -0.6
v 0.3 1.6 -0.6
v 0.1 1.6 -0.6
v -0.4 1.6 -0.6
v -0.5 1.6 -0.6
v -0.6 1.6 -0.6
v -0.7 1.6 -0.6
v -0.8 1.6 -0.6
v -0.6 1.6 -0.4
v -0.7 1.6 -0.4
v -0.6 1.6 -0.3
v -0.7 1.6 -0.3
v 0.7 1.6 0
v 0.6 1.6 0
v 0.7 1.6 0.2
v 0.6 1.6 0.2
v 0.8 1.6 0.6
v 0.7 1.6 0.6
v 0.6 1.6 0.6
v 0 1.6 0.6
v -0.1 1.6 0.6
v -0.6 1.6 0.6
v -0.7 1.6 0.6
v -0.8 1.6 0.6
v 0.7 1.6 0.7
v 0.6 1.6 0.7
v 0 1.6 0.7
v -0.1 1.6 0.7
v -0.6 1.6 0.7
v -0.7 1.6 0.7
v 0.6 1.6 0.8
v -0.6 1.6 0.8

# faces
f 4/3/1 2/3/1 1/3/1
f 5/3/1 2/3/1 4/3/1
f 6/3/1 2/3/1 5/3/1
f 7/3/1 2/3/1 6/3/1
f 9/3/1 4/3/1 3/3/1
f 9/3/1 5/3/1 4/3/1
f 10/7/1 6/7/1 5/7/1
f 10/3/1 5/3/1 9/3/1
f 11/3/1 8/3/1 7/3/1
f 11/7/1 6/7/1 10/7/1
f 11/3/1 7/3/1 6/3/1
f 12/3/1 8/3/1 11/3/1
f 13/3/1 9/3/1 3/3/1
f 14/7/1 10/7/1 9/7/1
f 14/3/1 9/3/1 13/3/1
f 15/8/1 11/8/1 10/8/1
f 15/7/1 10/7/1 14/7/1
f 16/8/1 11/8/1 15/8/1
f 17/8/1 11/8/1 16/8/1
f 18/8/1 11/8/1 17/8/1
f 19/8/1 11/8/1 18/8/1
f 20/7/1 12/7/1 11/7/1
f 20/8/1 11/8/1 19/8/1
f 21/3/1 8/3/1 12/3/1
f 21/7/1 12/7/1 20/7/1
f 22/3/1 8/3/1 21/3/1
f 23/2/1 15/2/1 14/2/1
f 23/2/1 16/2/1 15/2/1
f 24/8/1 17/8/1 16/8/1
f 24/2/1 16/2/1 23/2/1
f 25/2/1 18/2/1 17/2/1
f 25/8/1 17/8/1 24/8/1
f 26/8/1 19/8/1 18/8/1
f 26/2/1 18/2/1 25/2/1
f 27/2/1 20/2/1 19/2/1
f 27/8/1 19/8/1 26/8/1
f 27/2/1 21/2/1 20/2/1
f 28/2/1 21/2/1 27/2/1
f 29/8/1 26/8/1 25/8/1
f 29/8/1 25/8/1 24/8/1
f 29/8/1 28/8/1 27/8/1
f 29/8/1 27/8/1 26/8/1
f 29/8/1 24/8/1 23/8/1
f 30/8/1 28/8/1 29/8/1
f 31/8/1 28/8/1 30/8/1
f 32/8/1 28/8/1 31/8/1
f 33/8/1 29/8/1 23/8/1
f 33/2/1 30/2/1 29/2/1
f 34/8/1 31/8/1 30/8/1
f 34/2/1 30/2/1 33/2/1
f 35/2/1 32/2/1 31/2/1
f 35/8/1 31/8/1 34/8/1
f 36/8/1 28/8/1 32/8/1
f 36/2/1 32/2/1 35/2/1
f 37/2/1 23/2/1 14/2/1
f 37/8/1 35/8/1 34/8/1
f 37/8/1 36/8/1 35/8/1
f 37/8/1 33/8/1 23/8/1
f 37/8/1 34/8/1 33/8/1
f 38/8/1 36/8/1 37/8/1
f 39/8/1 36/8/1 38/8/1
f 40/8/1 36/8/1 39/8/1
f 41/8/1 28/8/1 36/8/1
f 41/8/1 36/8/1 40/8/1
f 42/2/1 21/2/1 28/2/1
f 42/8/1 28/8/1 41/8/1
f 43/7/1 14/7/1 13/7/1
f 43/2/1 37/2/1 14/2/1
f 43/2/1 38/2/1 37/2/1
f 44/2/1 38/2/1 43/2/1
f 45/8/1 39/8/1 38/8/1
f 45/2/1 38/2/1 44/2/1
f 46/2/1 40/2/1 39/2/1
f 46/8/1 39/8/1 45/8/1
f 47/8/1 41/8/1 40/8/1
f 47/2/1 40/2/1 46/2/1
f 48/2/1 42/2/1 41/2/1
f 48/8/1 41/8/1 47/8/1
f 49/2/1 21/2/1 42/2/1
f 49/2/1 42/2/1 48/2/1
f 50/7/1 22/7/1 21/7/1
f 50/2/1 21/2/1 49/2/1
f 51/3/1 13/3/1 3/3/1
f 51/7/1 43/7/1 13/7/1
f 52/6/1 44/6/1 43/6/1
f 52/7/1 43/7/1 51/7/1
f 53/8/1 46/8/1 45/8/1
f 53/6/1 44/6/1 52/6/1
f 53/8/1 48/8/1 47/8/1
f 53/8/1 45/8/1 44/8/1
f 53/8/1 49/8/1 48/8/1
f 53/8/1 47/8/1 46/8/1
f 54/8/1 49/8/1 53/8/1
f 55/8/1 49/8/1 54/8/1
f 56/8/1 49/8/1 55/8/1
f 57/8/1 49/8/1 56/8/1
f 58/6/1 50/6/1 49/6/1
f 58/8/1 49/8/1 57/8/1
f 59/7/1 22/7/1 50/7/1
f 59/6/1 50/6/1 58/6/1
f 60/3/1 8/3/1 22/3/1
f 60/7/1 22/7/1 59/7/1
f 61/3/1 52/3/1 51/3/1
f 61/7/1 53/7/1 52/7/1
f 62/6/1 54/6/1 53/6/1
f 62/7/1 53/7/1 61/7/1
f 63/8/1 55/8/1 54/8/1
f 63/6/1 54/6/1 62/6/1
f 64/6/1 56/6/1 55/6/1
f 64/8/1 55/8/1 63/8/1
f 65/8/1 57/8/1 56/8/1
f 65/6/1 56/6/1 64/6/1
f 66/6/1 58/6/1 57/6/1
f 66/8/1 57/8/1 65/8/1
f 67/7/1 59/7/1 58/7/1
f 67/6/1 58/6/1 66/6/1
f 68/3/1 60/3/1 59/3/1
f 68/7/1 59/7/1 67/7/1
f 69/7/1 65/7/1 64/7/1
f 69/7/1 64/7/1 63/7/1
f 69/7/1 66/7/1 65/7/1
f 69/7/1 63/7/1 62/7/1
f 69/3/1 62/3/1 61/3/1
f 69/7/1 67/7/1 66/7/1
f 70/3/1 68/3/1 67/3/1
f 70/7/1 67/7/1 69/7/1
f 71/3/1 69/3/1 61/3/1
f 71/3/1 51/3/1 3/3/1
f 71/3/1 70/3/1 69/3/1
f 71/3/1 61/3/1 51/3/1
f 72/3/1 70/3/1 71/3/1
f 73/3/1 68/3/1 70/3/1
f 73/3/1 70/3/1 72/3/1
f 74/3/1 60/3/1 68/3/1
f 74/3/1 68/3/1 73/3/1
f 74/3/1 8/3/1 60/3/1
f 75/2/1 72/2/1 71/2/1
f 76/6/1 73/6/1 72/6/1
f 76/2/1 72/2/1 75/2/1
f 77/2/1 74/2/1 73/2/1
f 77/6/1 73/6/1 76/6/1
f 78/2/1 74/2/1 77/2/1
f 79/5/1 76/5/1 75/5/1
f 79/5/1 77/5/1 76/5/1
f 79/5/1 78/5/1 77/5/1
f 80/5/1 78/5/1 79/5/1
f 81/5/1 78/5/1 80/5/1
f 82/5/1 78/5/1 81/5/1
f 83/4/1 81/4/1 80/4/1
f 84/4/1 81/4/1 83/4/1
f 88/3/1 86/3/1 85/3/1
f 89/3/1 86/3/1 88/3/1
f 92/3/1 88/3/1 87/3/1
f 93/3/1 88/3/1 92/3/1
f 94/3/1 90/3/1 89/3/1
f 95/3/1 90/3/1 94/3/1
f 97/3/1 92/3/1 91/3/1
f 98/3/1 92/3/1 97/3/1
f 99/3/1 96/3/1 95/3/1
f 100/3/1 96/3/1 99/3/1
f 101/2/1 98/2/1 97/2/1
f 102/2/1 98/2/1 101/2/1
f 103/2/1 100/2/1 99/2/1
f 104/2/1 100/2/1 103/2/1
f 105/5/1 102/5/1 101/5/1
f 106/5/1 102/5/1 105/5/1
f 109/5/1 104/5/1 103/5/1
f 110/5/1 104/5/1 109/5/1
f 111/4/1 107/4/1 106/4/1
f 112/4/1 107/4/1 111/4/1
f 113/4/1 109/4/1 108/4/1
f 114/4/1 109/4/1 113/4/1
f 120/3/1 116/3/1 115/3/1
f 121/3/1 116/3/1 120/3/1
f 122/3/1 118/3/1 117/3/1
f 123/3/1 118/3/1 122/3/1
f 125/3/1 120/3/1 119/3/1
f 126/3/1 120/3/1 125/3/1
f 127/3/1 124/3/1 123/3/1
f 128/3/1 124/3/1 127/3/1
f 133/4/1 130/4/1 129/4/1
f 134/4/1 130/4/1 133/4/1
f 135/4/1 132/4/1 131/4/1
f 136/4/1 132/4/1 135/4/1
f 137/3/2 138/3/2 142/3/2
f 142/3/2 138/3/2 143/3/2
f 139/3/2 140/3/2 144/3/2
f 144/3/2 140/3/2 145/3/2
f 141/3/2 142/3/2 147/3/2
f 147/3/2 142/3/2 148/3/2
f 145/3/2 146/3/2 149/3/2
f 149/3/2 146/3/2 150/3/2
f 151/4/2 152/4/2 155/4/2
f 155/4/2 152/4/2 156/4/2
f 153/4/2 154/4/2 157/4/2
f 157/4/2 154/4/2 158/4/2
f 159/3/2 160/3/2 162/3/2
f 162/3/2 160/3/2 163/3/2
f 161/3/2 162/3/2 166/3/2
f 166/3/2 162/3/2 167/3/2
f 163/3/2 164/3/2 168/3/2
f 168/3/2 164/3/2 169/3/2
f 165/3/2 166/3/2 171/3/2
f 171/3/2 166/3/2 172/3/2
f 169/3/2 170/3/2 173/3/2
f 173/3/2 170/3/2 174/3/2
f 171/2/2 172/2/2 175/2/2
f 175/2/2 172/2/2 176/2/2
f 173/2/2 174/2/2 177/2/2
f 177/2/2 174/2/2 178/2/2
f 175/5/2 176/5/2 179/5/2
f 179/5/2 176/5/2 180/5/2
f 177/5/2 178/5/2 183/5/2
f 183/5/2 178/5/2 184/5/2
f 180/4/2 181/4/2 185/4/2
f 185/4/2 181/4/2 186/4/2
f 182/4/2 183/4/2 187/4/2
f 187/4/2 183/4/2 188/4/2
f 189/3/2 190/3/2 192/3/2
f 192/3/2 190/3/2 193/3/2
f 191/3/2 192/3/2 195/3/2
f 193/3/2 194/3/2 195/3/2
f 192/3/2 193/3/2 195/3/2
f 195/3/2 194/3/2 196/3/2
f 196/3/2 194/3/2 197/3/2
f 197/3/2 194/3/2 198/3/2
f 195/2/2 196/2/2 199/2/2
f 196/6/2 197/6/2 200/6/2
f 199/2/2 196/2/2 200/2/2
f 197/2/2 198/2/2 201/2/2
f 200/6/2 197/6/2 201/6/2
f 201/2/2 198/2/2 202/2/2
f 199/5/2 200/5/2 203/5/2
f 200/5/2 201/5/2 203/5/2
f 201/5/2 202/5/2 203/5/2
f 203/5/2 202/5/2 204/5/2
f 204/5/2 202/5/2 205/5/2
f 205/5/2 202/5/2 206/5/2
f 204/4/2 205/4/2 207/4/2
f 207/4/2 205/4/2 208/4/2
f 214/3/3 210/3/3 209/3/3
f 215/5/3 212/5/3 211/5/3
f 217/3/3 214/3/3 213/3/3
f 218/3/3 210/3/3 214/3/3
f 218/3/3 214/3/3 217/3/3
f 219/4/3 216/4/3 215/4/3
f 219/5/3 215/5/3 211/5/3
f 220/4/3 216/4/3 219/4/3
f 221/3/3 210/3/3 218/3/3
f 222/2/3 211/2/3 210/2/3
f 222/3/3 210/3/3 221/3/3
f 223/5/3 219/5/3 211/5/3
f 223/2/3 211/2/3 222/2/3
f 224/5/3 219/5/3 223/5/3
f 230/3/3 226/3/3 225/3/3
f 231/2/3 227/2/3 226/2/3
f 231/3/3 226/3/3 230/3/3
f 232/5/3 228/5/3 227/5/3
f 232/2/3 227/2/3 231/2/3
f 233/5/3 228/5/3 232/5/3
f 236/3/3 230/3/3 229/3/3
f 237/3/3 230/3/3 236/3/3
f 238/4/3 234/4/3 233/4/3
f 239/4/3 234/4/3 238/4/3
f 240/3/3 236/3/3 235/3/3
f 241/3/3 236/3/3 240/3/3
f 245/3/3 242/3/3 241/3/3
f 246/3/3 242/3/3 245/3/3
f 249/4/3 244/4/3 243/4/3
f 250/4/3 244/4/3 249/4/3
f 251/3/3 247/3/3 246/3/3
f 252/2/3 248/2/3 247/2/3
f 252/3/3 247/3/3 251/3/3
f 253/5/3 249/5/3 248/5/3
f 253/2/3 248/2/3 252/2/3
f 254/5/3 249/5/3 253/5/3
f 260/3/3 256/3/3 255/3/3
f 261/3/3 256/3/3 260/3/3
f 262/4/3 258/4/3 257/4/3
f 263/4/3 258/4/3 262/4/3
f 264/3/3 260/3/3 259/3/3
f 265/3/3 260/3/3 264/3/3
f 268/3/3 267/3/3 266/3/3
f 269/3/3 267/3/3 268/3/3
f 273/3/3 270/3/3 269/3/3
f 274/3/3 270/3/3 273/3/3
f 275/4/3 272/4/3 271/4/3
f 276/4/3 272/4/3 275/4/3
f 277/3/4 278/3/4 282/3/4
f 282/3/4 278/3/4 283/3/4
f 279/4/4 280/4/4 284/4/4
f 284/4/4 280/4/4 285/4/4
f 281/3/4 282/3/4 286/3/4
f 286/3/4 282/3/4 287/3/4
f 288/3/4 289/3/4 290/3/4
f 290/3/4 289/3/4 291/3/4
f 291/3/4 292/3/4 295/3/4
f 295/3/4 292/3/4 296/3/4
f 293/4/4 294/4/4 297/4/4
f 297/4/4 294/4/4 298/4/4
f 299/3/4 300/3/4 304/3/4
f 300/2/4 301/2/4 305/2/4
f 304/3/4 300/3/4 305/3/4
f 301/5/4 302/5/4 306/5/4
f 305/2/4 301/2/4 306/2/4
f 306/5/4 302/5/4 307/5/4
f 303/3/4 304/3/4 310/3/4
f 310/3/4 304/3/4 311/3/4
f 307/4/4 308/4/4 312/4/4
f 312/4/4 308/4/4 313/4/4
f 309/3/4 310/3/4 314/3/4
f 314/3/4 310/3/4 315/3/4
f 315/3/4 316/3/4 319/3/4
f 319/3/4 316/3/4 320/3/4
f 317/4/4 318/4/4 323/4/4
f 323/4/4 318/4/4 324/4/4
f 320/3/4 321/3/4 325/3/4
f 321/2/4 322/2/4 326/2/4
f 325/3/4 321/3/4 326/3/4
f 322/5/4 323/5/4 327/5/4
f 326/2/4 322/2/4 327/2/4
f 327/5/4 323/5/4 328/5/4
f 329/3/4 330/3/4 334/3/4
f 331/5/4 332/5/4 335/5/4
f 333/3/4 334/3/4 337/3/4
f 330/2/4 331/2/4 337/2/4
f 334/3/4 330/3/4 337/3/4
f 331/5/4 335/5/4 338/5/4
f 337/2/4 331/2/4 338/2/4
f 333/3/4 337/3/4 339/3/4
f 337/6/4 338/6/4 339/6/4
f 338/5/4 335/5/4 340/5/4
f 339/6/4 338/6/4 340/6/4
f 333/3/4 339/3/4 341/3/4
f 341/3/4 339/3/4 342/3/4
f 335/4/4 336/4/4 343/4/4
f 340/5/4 335/5/4 343/5/4
f 343/4/4 336/4/4 344/4/4
f 342/3/4 339/3/4 345/3/4
f 339/2/4 340/2/4 346/2/4
f 345/3/4 339/3/4 346/3/4
f 340/5/4 343/5/4 347/5/4
f 346/2/4 340/2/4 347/2/4
f 347/5/4 343/5/4 348/5/4
f 352/3/5 350/3/5 349/3/5
f 353/3/5 350/3/5 352/3/5
f 355/3/5 352/3/5 351/3/5
f 355/3/5 354/3/5 353/3/5
f 355/3/5 353/3/5 352/3/5
f 356/3/5 354/3/5 355/3/5
f 357/3/5 354/3/5 356/3/5
f 358/3/5 354/3/5 357/3/5
f 359/3/5 357/3/5 356/3/5
f 360/3/5 357/3/5 359/3/5
f 364/3/5 362/3/5 361/3/5
f 365/3/5 362/3/5 364/3/5
f 368/3/5 364/3/5 363/3/5
f 369/3/5 364/3/5 368/3/5
f 370/3/5 366/3/5 365/3/5
f 371/3/5 366/3/5 370/3/5
f 373/3/5 368/3/5 367/3/5
f 374/3/5 368/3/5 373/3/5
f 377/3/5 372/3/5 371/3/5
f 378/3/5 372/3/5 377/3/5
f 379/3/5 375/3/5 374/3/5
f 380/3/5 375/3/5 379/3/5
f 381/3/5 377/3/5 376/3/5
f 382/3/5 377/3/5 381/3/5
f 383/3/5 381/3/5 380/3/5
f 384/3/5 381/3/5 383/3/5
f 390/3/5 386/3/5 385/3/5
f 391/3/5 386/3/5 390/3/5
f 392/3/5 388/3/5 387/3/5
f 393/3/5 388/3/5 392/3/5
f 395/3/5 390/3/5 389/3/5
f 396/3/5 390/3/5 395/3/5
f 397/3/5 394/3/5 393/3/5
f 398/3/5 394/3/5 397/3/5
f 403/3/5 400/3/5 399/3/5
f 404/3/5 400/3/5 403/3/5
f 407/3/5 402/3/5 401/3/5
f 408/3/5 402/3/5 407/3/5
f 409/3/5 405/3/5 404/3/5
f 410/3/5 405/3/5 409/3/5
f 411/3/5 407/3/5 406/3/5
f 412/3/5 407/3/5 411/3/5
f 413/5/6 414/5/6 418/5/6
f 418/5/6 414/5/6 419/5/6
f 415/5/6 416/5/6 420/5/6
f 420/5/6 416/5/6 421/5/6
f 417/5/6 418/5/6 423/5/6
f 423/5/6 418/5/6 424/5/6
f 421/5/6 422/5/6 425/5/6
f 425/5/6 422/5/6 426/5/6
f 427/5/6 428/5/6 431/5/6
f 431/5/6 428/5/6 432/5/6
f 429/5/6 430/5/6 435/5/6
f 435/5/6 430/5/6 436/5/6
f 432/5/6 433/5/6 437/5/6
f 437/5/6 433/5/6 438/5/6
f 434/5/6 435/5/6 439/5/6
f 439/5/6 435/5/6 440/5/6
f 441/4/6 442/4/6 444/4/6
f 444/4/6 442/4/6 445/4/6
f 445/4/6 442/4/6 446/4/6
f 446/4/6 442/4/6 447/4/6
f 447/4/6 442/4/6 448/4/6
f 448/4/6 442/4/6 449/4/6
f 443/4/6 444/4/6 452/4/6
f 444/5/6 445/5/6 453/5/6
f 452/4/6 444/4/6 453/4/6
f 445/4/6 446/4/6 454/4/6
f 453/5/6 445/5/6 454/5/6
f 446/5/6 447/5/6 455/5/6
f 454/4/6 446/4/6 455/4/6
f 447/4/6 448/4/6 456/4/6
f 455/5/6 447/5/6 456/5/6
f 448/5/6 449/5/6 457/5/6
f 456/4/6 448/4/6 457/4/6
f 449/4/6 450/4/6 458/4/6
f 457/5/6 449/5/6 458/5/6
f 458/4/6 450/4/6 459/4/6
f 456/5/6 457/5/6 461/5/6
f 452/5/6 453/5/6 461/5/6
f 458/5/6 459/5/6 461/5/6
f 457/5/6 458/5/6 461/5/6
f 453/5/6 454/5/6 461/5/6
f 455/5/6 456/5/6 461/5/6
f 454/5/6 455/5/6 461/5/6
f 459/4/6 460/4/6 462/4/6
f 461/5/6 459/5/6 462/5/6
f 452/5/6 461/5/6 463/5/6
f 461/4/6 462/4/6 463/4/6
f 462/4/6 460/4/6 464/4/6
f 463/4/6 462/4/6 464/4/6
f 452/5/6 463/5/6 465/5/6
f 451/4/6 452/4/6 465/4/6
f 463/5/6 464/5/6 465/5/6
f 465/5/6 464/5/6 466/5/6
f 451/4/6 465/4/6 467/4/6
f 465/4/6 466/4/6 467/4/6
f 466/5/6 464/5/6 468/5/6
f 467/4/6 466/4/6 468/4/6
f 451/4/6 467/4/6 469/4/6
f 467/5/6 468/5/6 470/5/6
f 469/4/6 467/4/6 470/4/6
f 468/5/6 464/5/6 471/5/6
f 470/5/6 468/5/6 471/5/6
f 471/5/6 464/5/6 472/5/6
f 472/5/6 464/5/6 473/5/6
f 473/5/6 464/5/6 474/5/6
f 464/4/6 460/4/6 475/4/6
f 474/5/6 464/5/6 475/5/6
f 475/4/6 460/4/6 476/4/6
f 470/4/6 471/4/6 477/4/6
f 471/5/6 472/5/6 478/5/6
f 477/4/6 471/4/6 478/4/6
f 472/4/6 473/4/6 479/4/6
f 478/5/6 472/5/6 479/5/6
f 473/5/6 474/5/6 480/5/6
f 479/4/6 473/4/6 480/4/6
f 474/4/6 475/4/6 481/4/6
f 480/5/6 474/5/6 481/5/6
f 481/4/6 475/4/6 482/4/6
f 478/4/6 479/4/6 483/4/6
f 479/4/6 480/4/6 483/4/6
f 480/4/6 481/4/6 483/4/6
f 483/4/6 481/4/6 484/4/6
