# MagicaVoxel @ Ephtracy

# group
o 

# material
mtllib BlockRail.mtl
usemtl palette

# normals
vn 1 0 0
vn -1 0 0
vn 0 0 -1
vn 0 0 1
vn 0 -1 0
vn 0 1 0

# texcoords
vt 0.00195313 0.5
vt 0.00585938 0.5

# verts
v 0.2 0 -0.8
v 0.2 0 -0.7
v 0.2 0 -0.3
v 0.2 0 -0.2
v 0.2 0 0.2
v 0.2 0 0.3
v 0.2 0 0.7
v 0.2 0 0.8
v 0.2 0.1 -0.8
v 0.2 0.1 -0.7
v 0.2 0.1 -0.3
v 0.2 0.1 -0.2
v 0.2 0.1 0.2
v 0.2 0.1 0.3
v 0.2 0.1 0.7
v 0.2 0.1 0.8
v 0.1 0 -0.7
v 0.1 0 -0.3
v 0.1 0 -0.2
v 0.1 0 0.2
v 0.1 0 0.3
v 0.1 0 0.7
v 0.1 0.1 -0.7
v 0.1 0.1 -0.3
v 0.1 0.1 -0.2
v 0.1 0.1 0.2
v 0.1 0.1 0.3
v 0.1 0.1 0.7
v -0.2 0 -0.7
v -0.2 0 -0.3
v -0.2 0 -0.2
v -0.2 0 0.2
v -0.2 0 0.3
v -0.2 0 0.7
v -0.2 0.1 -0.7
v -0.2 0.1 -0.3
v -0.2 0.1 -0.2
v -0.2 0.1 0.2
v -0.2 0.1 0.3
v -0.2 0.1 0.7
v -0.3 0 -0.8
v -0.3 0 -0.7
v -0.3 0 -0.3
v -0.3 0 -0.2
v -0.3 0 0.2
v -0.3 0 0.3
v -0.3 0 0.7
v -0.3 0 0.8
v -0.3 0.1 -0.8
v -0.3 0.1 -0.7
v -0.3 0.1 -0.3
v -0.3 0.1 -0.2
v -0.3 0.1 0.2
v -0.3 0.1 0.3
v -0.3 0.1 0.7
v -0.3 0.1 0.8
v 0.2 0 -0.8
v 0.2 0.1 -0.8
v 0 0 -0.8
v 0 0.1 -0.8
v -0.1 0 -0.8
v -0.1 0.1 -0.8
v -0.3 0 -0.8
v -0.3 0.1 -0.8
v 0.2 0 -0.3
v 0.2 0.1 -0.3
v 0.1 0 -0.3
v 0.1 0.1 -0.3
v -0.2 0 -0.3
v -0.2 0.1 -0.3
v -0.3 0 -0.3
v -0.3 0.1 -0.3
v 0.2 0 0.2
v 0.2 0.1 0.2
v 0.1 0 0.2
v 0.1 0.1 0.2
v -0.2 0 0.2
v -0.2 0.1 0.2
v -0.3 0 0.2
v -0.3 0.1 0.2
v 0.2 0 0.7
v 0.2 0.1 0.7
v 0.1 0 0.7
v 0.1 0.1 0.7
v -0.2 0 0.7
v -0.2 0.1 0.7
v -0.3 0 0.7
v -0.3 0.1 0.7
v 0.2 0 -0.7
v 0.2 0.1 -0.7
v 0.1 0 -0.7
v 0.1 0.1 -0.7
v -0.2 0 -0.7
v -0.2 0.1 -0.7
v -0.3 0 -0.7
v -0.3 0.1 -0.7
v 0.2 0 -0.2
v 0.2 0.1 -0.2
v 0.1 0 -0.2
v 0.1 0.1 -0.2
v -0.2 0 -0.2
v -0.2 0.1 -0.2
v -0.3 0 -0.2
v -0.3 0.1 -0.2
v 0.2 0 0.3
v 0.2 0.1 0.3
v 0.1 0 0.3
v 0.1 0.1 0.3
v -0.2 0 0.3
v -0.2 0.1 0.3
v -0.3 0 0.3
v -0.3 0.1 0.3
v 0.2 0 0.8
v 0.2 0.1 0.8
v 0 0 0.8
v 0 0.1 0.8
v -0.1 0 0.8
v -0.1 0.1 0.8
v -0.3 0 0.8
v -0.3 0.1 0.8
v 0.2 0 -0.8
v 0 0 -0.8
v -0.1 0 -0.8
v -0.3 0 -0.8
v 0.2 0 -0.7
v 0.1 0 -0.7
v -0.2 0 -0.7
v -0.3 0 -0.7
v 0.2 0 -0.3
v 0.1 0 -0.3
v -0.2 0 -0.3
v -0.3 0 -0.3
v 0.2 0 -0.2
v 0.1 0 -0.2
v -0.2 0 -0.2
v -0.3 0 -0.2
v 0.2 0 0.2
v 0.1 0 0.2
v -0.2 0 0.2
v -0.3 0 0.2
v 0.2 0 0.3
v 0.1 0 0.3
v -0.2 0 0.3
v -0.3 0 0.3
v 0.2 0 0.7
v 0.1 0 0.7
v -0.2 0 0.7
v -0.3 0 0.7
v 0.2 0 0.8
v 0 0 0.8
v -0.1 0 0.8
v -0.3 0 0.8
v 0.2 0.1 -0.8
v 0 0.1 -0.8
v -0.1 0.1 -0.8
v -0.3 0.1 -0.8
v 0.2 0.1 -0.7
v 0.1 0.1 -0.7
v -0.2 0.1 -0.7
v -0.3 0.1 -0.7
v 0.2 0.1 -0.3
v 0.1 0.1 -0.3
v -0.2 0.1 -0.3
v -0.3 0.1 -0.3
v 0.2 0.1 -0.2
v 0.1 0.1 -0.2
v -0.2 0.1 -0.2
v -0.3 0.1 -0.2
v 0.2 0.1 0.2
v 0.1 0.1 0.2
v -0.2 0.1 0.2
v -0.3 0.1 0.2
v 0.2 0.1 0.3
v 0.1 0.1 0.3
v -0.2 0.1 0.3
v -0.3 0.1 0.3
v 0.2 0.1 0.7
v 0.1 0.1 0.7
v -0.2 0.1 0.7
v -0.3 0.1 0.7
v 0.2 0.1 0.8
v 0 0.1 0.8
v -0.1 0.1 0.8
v -0.3 0.1 0.8

# faces
f 9/2/1 2/2/1 1/2/1
f 10/2/1 2/2/1 9/2/1
f 11/2/1 4/2/1 3/2/1
f 12/2/1 4/2/1 11/2/1
f 13/2/1 6/2/1 5/2/1
f 14/2/1 6/2/1 13/2/1
f 15/2/1 8/2/1 7/2/1
f 16/2/1 8/2/1 15/2/1
f 23/2/1 18/2/1 17/2/1
f 24/2/1 18/2/1 23/2/1
f 25/2/1 20/2/1 19/2/1
f 26/2/1 20/2/1 25/2/1
f 27/2/1 22/2/1 21/2/1
f 28/2/1 22/2/1 27/2/1
f 29/2/2 30/2/2 35/2/2
f 35/2/2 30/2/2 36/2/2
f 31/2/2 32/2/2 37/2/2
f 37/2/2 32/2/2 38/2/2
f 33/2/2 34/2/2 39/2/2
f 39/2/2 34/2/2 40/2/2
f 41/2/2 42/2/2 49/2/2
f 49/2/2 42/2/2 50/2/2
f 43/2/2 44/2/2 51/2/2
f 51/2/2 44/2/2 52/2/2
f 45/2/2 46/2/2 53/2/2
f 53/2/2 46/2/2 54/2/2
f 47/2/2 48/2/2 55/2/2
f 55/2/2 48/2/2 56/2/2
f 59/2/3 58/2/3 57/2/3
f 60/2/3 58/2/3 59/2/3
f 61/1/3 60/1/3 59/1/3
f 62/1/3 60/1/3 61/1/3
f 63/2/3 62/2/3 61/2/3
f 64/2/3 62/2/3 63/2/3
f 67/2/3 66/2/3 65/2/3
f 68/2/3 66/2/3 67/2/3
f 71/2/3 70/2/3 69/2/3
f 72/2/3 70/2/3 71/2/3
f 75/2/3 74/2/3 73/2/3
f 76/2/3 74/2/3 75/2/3
f 79/2/3 78/2/3 77/2/3
f 80/2/3 78/2/3 79/2/3
f 83/2/3 82/2/3 81/2/3
f 84/2/3 82/2/3 83/2/3
f 87/2/3 86/2/3 85/2/3
f 88/2/3 86/2/3 87/2/3
f 89/2/4 90/2/4 91/2/4
f 91/2/4 90/2/4 92/2/4
f 93/2/4 94/2/4 95/2/4
f 95/2/4 94/2/4 96/2/4
f 97/2/4 98/2/4 99/2/4
f 99/2/4 98/2/4 100/2/4
f 101/2/4 102/2/4 103/2/4
f 103/2/4 102/2/4 104/2/4
f 105/2/4 106/2/4 107/2/4
f 107/2/4 106/2/4 108/2/4
f 109/2/4 110/2/4 111/2/4
f 111/2/4 110/2/4 112/2/4
f 113/2/4 114/2/4 115/2/4
f 115/2/4 114/2/4 116/2/4
f 115/1/4 116/1/4 117/1/4
f 117/1/4 116/1/4 118/1/4
f 117/2/4 118/2/4 119/2/4
f 119/2/4 118/2/4 120/2/4
f 125/2/5 122/2/5 121/2/5
f 126/2/5 122/2/5 125/2/5
f 127/2/5 124/2/5 123/2/5
f 128/2/5 124/2/5 127/2/5
f 130/2/5 122/2/5 126/2/5
f 131/2/5 127/2/5 123/2/5
f 133/2/5 130/2/5 129/2/5
f 134/2/5 122/2/5 130/2/5
f 134/2/5 130/2/5 133/2/5
f 135/2/5 132/2/5 131/2/5
f 135/2/5 131/2/5 123/2/5
f 136/2/5 132/2/5 135/2/5
f 138/2/5 122/2/5 134/2/5
f 139/2/5 135/2/5 123/2/5
f 141/2/5 138/2/5 137/2/5
f 142/2/5 122/2/5 138/2/5
f 142/2/5 138/2/5 141/2/5
f 143/2/5 140/2/5 139/2/5
f 143/2/5 139/2/5 123/2/5
f 144/2/5 140/2/5 143/2/5
f 146/2/5 122/2/5 142/2/5
f 147/2/5 143/2/5 123/2/5
f 149/2/5 146/2/5 145/2/5
f 150/1/5 123/1/5 122/1/5
f 150/2/5 146/2/5 149/2/5
f 150/2/5 122/2/5 146/2/5
f 151/2/5 148/2/5 147/2/5
f 151/1/5 123/1/5 150/1/5
f 151/2/5 147/2/5 123/2/5
f 152/2/5 148/2/5 151/2/5
f 153/2/6 154/2/6 157/2/6
f 157/2/6 154/2/6 158/2/6
f 155/2/6 156/2/6 159/2/6
f 159/2/6 156/2/6 160/2/6
f 158/2/6 154/2/6 162/2/6
f 155/2/6 159/2/6 163/2/6
f 161/2/6 162/2/6 165/2/6
f 162/2/6 154/2/6 166/2/6
f 165/2/6 162/2/6 166/2/6
f 163/2/6 164/2/6 167/2/6
f 155/2/6 163/2/6 167/2/6
f 167/2/6 164/2/6 168/2/6
f 166/2/6 154/2/6 170/2/6
f 155/2/6 167/2/6 171/2/6
f 169/2/6 170/2/6 173/2/6
f 170/2/6 154/2/6 174/2/6
f 173/2/6 170/2/6 174/2/6
f 171/2/6 172/2/6 175/2/6
f 155/2/6 171/2/6 175/2/6
f 175/2/6 172/2/6 176/2/6
f 174/2/6 154/2/6 178/2/6
f 155/2/6 175/2/6 179/2/6
f 177/2/6 178/2/6 181/2/6
f 154/1/6 155/1/6 182/1/6
f 181/2/6 178/2/6 182/2/6
f 178/2/6 154/2/6 182/2/6
f 179/2/6 180/2/6 183/2/6
f 182/1/6 155/1/6 183/1/6
f 155/2/6 179/2/6 183/2/6
f 183/2/6 180/2/6 184/2/6
