# MagicaVoxel @ Ephtracy

# group
o 

# material
mtllib Boat.mtl
usemtl palette

# normals
vn -1 0 0
vn 1 0 0
vn 0 0 1
vn 0 0 -1
vn 0 -1 0
vn 0 1 0

# texcoords
vt 0.00195313 0.5
vt 0.0488281 0.5
vt 0.158203 0.5
vt 0.169922 0.5

# verts
v -1.6 0.7 0.2
v -1.6 0.7 -0.1
v -1.6 0.8 0.2
v -1.6 0.8 -0.1
v -1.5 0.7 0.3
v -1.5 0.7 0.2
v -1.5 0.8 0.3
v -1.5 0.8 0.2
v -1.5 0.8 0
v -1.5 0.9 0.2
v -1.5 0.9 0
v -1.4 0.7 0.4
v -1.4 0.7 0.3
v -1.4 0.8 0.4
v -1.4 0.8 0.3
v -1.4 0.8 0.2
v -1.4 0.9 0.3
v -1.4 0.9 0.2
v -1.2 0.6 0.4
v -1.2 0.6 0.2
v -1.2 0.7 0.4
v -1.2 0.7 0.3
v -1.2 0.7 0.2
v -1 0.8 1.7
v -1 0.8 0.4
v -1 0.8 0.2
v -1 0.8 -1.1
v -1 0.9 1.7
v -1 0.9 -1.1
v -0.9 0.3 1.7
v -0.9 0.3 -1.1
v -0.9 0.6 0.4
v -0.9 0.6 0.2
v -0.9 0.8 1.8
v -0.9 0.8 1.7
v -0.9 0.8 0.4
v -0.9 0.8 0.2
v -0.9 0.8 -1.1
v -0.9 0.8 -1.2
v -0.9 0.9 1.8
v -0.9 0.9 1.7
v -0.9 0.9 -1.1
v -0.9 0.9 -1.2
v -0.8 0 1.5
v -0.8 0 -0.9
v -0.8 0.1 1.6
v -0.8 0.1 1.5
v -0.8 0.1 -0.9
v -0.8 0.1 -1
v -0.8 0.3 1.8
v -0.8 0.3 1.7
v -0.8 0.3 1.6
v -0.8 0.3 -1
v -0.8 0.3 -1.1
v -0.8 0.3 -1.2
v -0.8 0.8 1.9
v -0.8 0.8 1.8
v -0.8 0.8 1.7
v -0.8 0.8 -1.1
v -0.8 0.8 -1.2
v -0.8 0.8 -1.3
v -0.8 0.9 1.9
v -0.8 0.9 1.8
v -0.8 0.9 -1.2
v -0.8 0.9 -1.3
v -0.7 0 1.6
v -0.7 0 1.5
v -0.7 0 -0.9
v -0.7 0 -1
v -0.7 0.1 1.7
v -0.7 0.1 1.6
v -0.7 0.1 1.5
v -0.7 0.1 -0.9
v -0.7 0.1 -1
v -0.7 0.1 -1.1
v -0.7 0.3 1.7
v -0.7 0.3 1.6
v -0.7 0.3 -1
v -0.7 0.3 -1.1
v -0.6 0 1.7
v -0.6 0 1.6
v -0.6 0 -1
v -0.6 0 -1.1
v -0.6 0.1 1.7
v -0.6 0.1 1.6
v -0.6 0.1 -1
v -0.6 0.1 -1.1
v 0.7 0.3 1.7
v 0.7 0.3 1.6
v 0.7 0.3 -1
v 0.7 0.3 -1.1
v 0.7 0.8 1.8
v 0.7 0.8 1.7
v 0.7 0.8 1.6
v 0.7 0.8 -1
v 0.7 0.8 -1.1
v 0.7 0.8 -1.2
v 0.7 0.9 1.8
v 0.7 0.9 1.7
v 0.7 0.9 -1.1
v 0.7 0.9 -1.2
v 0.8 0.3 1.6
v 0.8 0.3 -1
v 0.8 0.8 1.7
v 0.8 0.8 1.6
v 0.8 0.8 -1
v 0.8 0.8 -1.1
v 0.8 0.9 1.7
v 0.8 0.9 1.6
v 0.8 0.9 -1
v 0.8 0.9 -1.1
v 0.9 0.8 1.6
v 0.9 0.8 -1
v 0.9 0.9 1.6
v 0.9 0.9 -1
v 1.1 0.7 0.2
v 1.1 0.7 0.1
v 1.1 0.8 0.3
v 1.1 0.8 0.2
v 1.1 0.9 0.3
v 1.1 0.9 0.1
v 1.3 0.7 0.1
v 1.3 0.7 0
v 1.3 0.9 0.1
v 1.3 0.9 0
v 1.5 0.7 0
v 1.5 0.7 -0.1
v 1.5 0.8 0
v 1.5 0.8 -0.1
v -1.5 0.7 0
v -1.5 0.7 -0.1
v -1.5 0.8 0
v -1.5 0.8 -0.1
v -1.3 0.7 0.1
v -1.3 0.7 0
v -1.3 0.9 0.1
v -1.3 0.9 0
v -1.1 0.7 0.2
v -1.1 0.7 0.1
v -1.1 0.8 0.3
v -1.1 0.8 0.2
v -1.1 0.9 0.3
v -1.1 0.9 0.1
v -0.9 0.8 1.6
v -0.9 0.8 -1
v -0.9 0.9 1.6
v -0.9 0.9 -1
v -0.8 0.3 1.6
v -0.8 0.3 -1
v -0.8 0.8 1.7
v -0.8 0.8 1.6
v -0.8 0.8 -1
v -0.8 0.8 -1.1
v -0.8 0.9 1.7
v -0.8 0.9 1.6
v -0.8 0.9 -1
v -0.8 0.9 -1.1
v -0.7 0.3 1.7
v -0.7 0.3 1.6
v -0.7 0.3 -1
v -0.7 0.3 -1.1
v -0.7 0.8 1.8
v -0.7 0.8 1.7
v -0.7 0.8 1.6
v -0.7 0.8 -1
v -0.7 0.8 -1.1
v -0.7 0.8 -1.2
v -0.7 0.9 1.8
v -0.7 0.9 1.7
v -0.7 0.9 -1.1
v -0.7 0.9 -1.2
v 0.6 0 1.7
v 0.6 0 1.6
v 0.6 0 -1
v 0.6 0 -1.1
v 0.6 0.1 1.7
v 0.6 0.1 1.6
v 0.6 0.1 -1
v 0.6 0.1 -1.1
v 0.7 0 1.6
v 0.7 0 1.5
v 0.7 0 -0.9
v 0.7 0 -1
v 0.7 0.1 1.7
v 0.7 0.1 1.6
v 0.7 0.1 1.5
v 0.7 0.1 -0.9
v 0.7 0.1 -1
v 0.7 0.1 -1.1
v 0.7 0.3 1.7
v 0.7 0.3 1.6
v 0.7 0.3 -1
v 0.7 0.3 -1.1
v 0.8 0 1.5
v 0.8 0 -0.9
v 0.8 0.1 1.6
v 0.8 0.1 1.5
v 0.8 0.1 -0.9
v 0.8 0.1 -1
v 0.8 0.3 1.8
v 0.8 0.3 1.7
v 0.8 0.3 1.6
v 0.8 0.3 -1
v 0.8 0.3 -1.1
v 0.8 0.3 -1.2
v 0.8 0.8 1.9
v 0.8 0.8 1.8
v 0.8 0.8 1.7
v 0.8 0.8 -1.1
v 0.8 0.8 -1.2
v 0.8 0.8 -1.3
v 0.8 0.9 1.9
v 0.8 0.9 1.8
v 0.8 0.9 -1.2
v 0.8 0.9 -1.3
v 0.9 0.3 1.7
v 0.9 0.3 -1.1
v 0.9 0.6 0.4
v 0.9 0.6 0.2
v 0.9 0.8 1.8
v 0.9 0.8 1.7
v 0.9 0.8 0.4
v 0.9 0.8 0.2
v 0.9 0.8 -1.1
v 0.9 0.9 1.8
v 0.9 0.9 1.7
v 1 0.8 1.7
v 1 0.8 0.4
v 1 0.8 0.2
v 1 0.8 -1.2
v 1 0.9 1.7
v 1 0.9 -1.2
v 1.2 0.6 0.4
v 1.2 0.6 0.2
v 1.2 0.7 0.4
v 1.2 0.7 0.3
v 1.2 0.7 0.2
v 1.4 0.7 0.4
v 1.4 0.7 0.3
v 1.4 0.8 0.4
v 1.4 0.8 0.3
v 1.4 0.8 0.2
v 1.4 0.9 0.3
v 1.4 0.9 0.2
v 1.5 0.7 0.3
v 1.5 0.7 0.2
v 1.5 0.8 0.3
v 1.5 0.8 0.2
v 1.5 0.8 0
v 1.5 0.9 0.2
v 1.5 0.9 0
v 1.6 0.7 0.2
v 1.6 0.7 -0.1
v 1.6 0.8 0.2
v 1.6 0.8 -0.1
v -0.8 0.8 1.9
v -0.8 0.9 1.9
v 0.8 0.8 1.9
v 0.8 0.9 1.9
v -0.9 0.8 1.8
v -0.9 0.9 1.8
v -0.8 0.3 1.8
v -0.8 0.8 1.8
v -0.8 0.9 1.8
v 0.8 0.3 1.8
v 0.8 0.8 1.8
v 0.8 0.9 1.8
v 0.9 0.8 1.8
v 0.9 0.9 1.8
v -1 0.8 1.7
v -1 0.9 1.7
v -0.9 0.3 1.7
v -0.9 0.8 1.7
v -0.9 0.9 1.7
v -0.8 0.3 1.7
v -0.8 0.8 1.7
v -0.7 0.1 1.7
v -0.7 0.3 1.7
v -0.6 0 1.7
v -0.6 0.1 1.7
v 0.6 0 1.7
v 0.6 0.1 1.7
v 0.7 0.1 1.7
v 0.7 0.3 1.7
v 0.8 0.3 1.7
v 0.8 0.8 1.7
v 0.9 0.3 1.7
v 0.9 0.8 1.7
v 0.9 0.9 1.7
v 1 0.8 1.7
v 1 0.9 1.7
v -0.8 0.1 1.6
v -0.8 0.3 1.6
v -0.7 0 1.6
v -0.7 0.1 1.6
v -0.7 0.3 1.6
v -0.6 0 1.6
v -0.6 0.1 1.6
v 0.6 0 1.6
v 0.6 0.1 1.6
v 0.7 0 1.6
v 0.7 0.1 1.6
v 0.7 0.3 1.6
v 0.8 0.1 1.6
v 0.8 0.3 1.6
v -0.8 0 1.5
v -0.8 0.1 1.5
v -0.7 0 1.5
v -0.7 0.1 1.5
v 0.7 0 1.5
v 0.7 0.1 1.5
v 0.8 0 1.5
v 0.8 0.1 1.5
v -1.4 0.7 0.4
v -1.4 0.8 0.4
v -1.2 0.6 0.4
v -1.2 0.7 0.4
v -1.2 0.8 0.4
v -1 0.6 0.4
v -1 0.8 0.4
v -0.9 0.6 0.4
v -0.9 0.8 0.4
v 0.9 0.6 0.4
v 0.9 0.8 0.4
v 1 0.6 0.4
v 1 0.8 0.4
v 1.2 0.6 0.4
v 1.2 0.7 0.4
v 1.2 0.8 0.4
v 1.4 0.7 0.4
v 1.4 0.8 0.4
v -1.5 0.7 0.3
v -1.5 0.8 0.3
v -1.4 0.7 0.3
v -1.4 0.8 0.3
v -1.4 0.9 0.3
v -1.2 0.8 0.3
v -1.1 0.8 0.3
v -1.1 0.9 0.3
v 1.1 0.8 0.3
v 1.1 0.9 0.3
v 1.2 0.8 0.3
v 1.4 0.7 0.3
v 1.4 0.8 0.3
v 1.4 0.9 0.3
v 1.5 0.7 0.3
v 1.5 0.8 0.3
v -1.6 0.7 0.2
v -1.6 0.8 0.2
v -1.5 0.7 0.2
v -1.5 0.8 0.2
v -1.5 0.9 0.2
v -1.4 0.8 0.2
v -1.4 0.9 0.2
v 1.4 0.8 0.2
v 1.4 0.9 0.2
v 1.5 0.7 0.2
v 1.5 0.8 0.2
v 1.5 0.9 0.2
v 1.6 0.7 0.2
v 1.6 0.8 0.2
v -0.9 0.8 -1
v -0.9 0.9 -1
v -0.8 0.3 -1
v -0.8 0.8 -1
v -0.8 0.9 -1
v -0.7 0.3 -1
v -0.7 0.8 -1
v 0.7 0.3 -1
v 0.7 0.8 -1
v 0.8 0.3 -1
v 0.8 0.8 -1
v 0.8 0.9 -1
v 0.9 0.8 -1
v 0.9 0.9 -1
v -0.8 0.8 -1.1
v -0.8 0.9 -1.1
v -0.7 0.3 -1.1
v -0.7 0.8 -1.1
v -0.7 0.9 -1.1
v 0.7 0.3 -1.1
v 0.7 0.8 -1.1
v 0.7 0.9 -1.1
v 0.8 0.8 -1.1
v 0.8 0.9 -1.1
v -0.7 0.8 -1.2
v -0.7 0.9 -1.2
v 0.7 0.8 -1.2
v 0.7 0.9 -1.2
v -0.7 0.8 1.8
v -0.7 0.9 1.8
v 0.7 0.8 1.8
v 0.7 0.9 1.8
v -0.8 0.8 1.7
v -0.8 0.9 1.7
v -0.7 0.3 1.7
v -0.7 0.8 1.7
v -0.7 0.9 1.7
v 0.7 0.3 1.7
v 0.7 0.8 1.7
v 0.7 0.9 1.7
v 0.8 0.8 1.7
v 0.8 0.9 1.7
v -0.9 0.8 1.6
v -0.9 0.9 1.6
v -0.8 0.3 1.6
v -0.8 0.8 1.6
v -0.8 0.9 1.6
v -0.7 0.3 1.6
v -0.7 0.8 1.6
v 0.7 0.3 1.6
v 0.7 0.8 1.6
v 0.8 0.3 1.6
v 0.8 0.8 1.6
v 0.8 0.9 1.6
v 0.9 0.8 1.6
v 0.9 0.9 1.6
v -1.2 0.6 0.2
v -1.2 0.7 0.2
v -1.1 0.7 0.2
v -1.1 0.8 0.2
v -1 0.6 0.2
v -1 0.8 0.2
v -0.9 0.6 0.2
v -0.9 0.8 0.2
v 0.9 0.6 0.2
v 0.9 0.8 0.2
v 1 0.6 0.2
v 1 0.8 0.2
v 1.1 0.7 0.2
v 1.1 0.8 0.2
v 1.2 0.6 0.2
v 1.2 0.7 0.2
v -1.3 0.7 0.1
v -1.3 0.9 0.1
v -1.1 0.7 0.1
v -1.1 0.9 0.1
v 1.1 0.7 0.1
v 1.1 0.9 0.1
v 1.3 0.7 0.1
v 1.3 0.9 0.1
v -1.5 0.7 0
v -1.5 0.8 0
v -1.5 0.9 0
v -1.3 0.7 0
v -1.3 0.9 0
v 1.3 0.7 0
v 1.3 0.9 0
v 1.5 0.7 0
v 1.5 0.8 0
v 1.5 0.9 0
v -1.6 0.7 -0.1
v -1.6 0.8 -0.1
v -1.5 0.7 -0.1
v -1.5 0.8 -0.1
v 1.5 0.7 -0.1
v 1.5 0.8 -0.1
v 1.6 0.7 -0.1
v 1.6 0.8 -0.1
v -0.8 0 -0.9
v -0.8 0.1 -0.9
v -0.7 0 -0.9
v -0.7 0.1 -0.9
v 0.7 0 -0.9
v 0.7 0.1 -0.9
v 0.8 0 -0.9
v 0.8 0.1 -0.9
v -0.8 0.1 -1
v -0.8 0.3 -1
v -0.7 0 -1
v -0.7 0.1 -1
v -0.7 0.3 -1
v -0.6 0 -1
v -0.6 0.1 -1
v 0.6 0 -1
v 0.6 0.1 -1
v 0.7 0 -1
v 0.7 0.1 -1
v 0.7 0.3 -1
v 0.8 0.1 -1
v 0.8 0.3 -1
v -1 0.8 -1.1
v -1 0.9 -1.1
v -0.9 0.3 -1.1
v -0.9 0.8 -1.1
v -0.9 0.9 -1.1
v -0.8 0.3 -1.1
v -0.8 0.8 -1.1
v -0.7 0.1 -1.1
v -0.7 0.3 -1.1
v -0.6 0 -1.1
v -0.6 0.1 -1.1
v 0.6 0 -1.1
v 0.6 0.1 -1.1
v 0.7 0.1 -1.1
v 0.7 0.3 -1.1
v 0.8 0.3 -1.1
v 0.8 0.8 -1.1
v 0.9 0.3 -1.1
v 0.9 0.8 -1.1
v -0.9 0.8 -1.2
v -0.9 0.9 -1.2
v -0.8 0.3 -1.2
v -0.8 0.8 -1.2
v -0.8 0.9 -1.2
v 0.8 0.3 -1.2
v 0.8 0.8 -1.2
v 0.8 0.9 -1.2
v 1 0.8 -1.2
v 1 0.9 -1.2
v -0.8 0.8 -1.3
v -0.8 0.9 -1.3
v 0.8 0.8 -1.3
v 0.8 0.9 -1.3
v -0.6 0 1.7
v 0.6 0 1.7
v -0.7 0 1.6
v -0.6 0 1.6
v 0.6 0 1.6
v 0.7 0 1.6
v -0.8 0 1.5
v -0.7 0 1.5
v 0.7 0 1.5
v 0.8 0 1.5
v -0.8 0 -0.9
v -0.7 0 -0.9
v 0.7 0 -0.9
v 0.8 0 -0.9
v -0.7 0 -1
v -0.6 0 -1
v 0.6 0 -1
v 0.7 0 -1
v -0.6 0 -1.1
v 0.6 0 -1.1
v -0.7 0.1 1.7
v -0.6 0.1 1.7
v 0.6 0.1 1.7
v 0.7 0.1 1.7
v -0.8 0.1 1.6
v -0.7 0.1 1.6
v -0.6 0.1 1.6
v 0.6 0.1 1.6
v 0.7 0.1 1.6
v 0.8 0.1 1.6
v -0.8 0.1 1.5
v -0.7 0.1 1.5
v 0.7 0.1 1.5
v 0.8 0.1 1.5
v -0.8 0.1 -0.9
v -0.7 0.1 -0.9
v 0.7 0.1 -0.9
v 0.8 0.1 -0.9
v -0.8 0.1 -1
v -0.7 0.1 -1
v -0.6 0.1 -1
v 0.6 0.1 -1
v 0.7 0.1 -1
v 0.8 0.1 -1
v -0.7 0.1 -1.1
v -0.6 0.1 -1.1
v 0.6 0.1 -1.1
v 0.7 0.1 -1.1
v -0.8 0.3 1.8
v 0.8 0.3 1.8
v -0.9 0.3 1.7
v -0.8 0.3 1.7
v -0.7 0.3 1.7
v 0.7 0.3 1.7
v 0.8 0.3 1.7
v 0.9 0.3 1.7
v -0.8 0.3 1.6
v -0.7 0.3 1.6
v 0.7 0.3 1.6
v 0.8 0.3 1.6
v -0.8 0.3 -1
v -0.7 0.3 -1
v 0.7 0.3 -1
v 0.8 0.3 -1
v -0.9 0.3 -1.1
v -0.8 0.3 -1.1
v -0.7 0.3 -1.1
v 0.7 0.3 -1.1
v 0.8 0.3 -1.1
v 0.9 0.3 -1.1
v -0.8 0.3 -1.2
v 0.8 0.3 -1.2
v -1.2 0.6 0.4
v -1 0.6 0.4
v -0.9 0.6 0.4
v 0.9 0.6 0.4
v 1 0.6 0.4
v 1.2 0.6 0.4
v -1.2 0.6 0.2
v -1 0.6 0.2
v -0.9 0.6 0.2
v 0.9 0.6 0.2
v 1 0.6 0.2
v 1.2 0.6 0.2
v -1.4 0.7 0.4
v -1.2 0.7 0.4
v 1.2 0.7 0.4
v 1.4 0.7 0.4
v -1.5 0.7 0.3
v -1.4 0.7 0.3
v -1.2 0.7 0.3
v 1.2 0.7 0.3
v 1.4 0.7 0.3
v 1.5 0.7 0.3
v -1.6 0.7 0.2
v -1.5 0.7 0.2
v -1.4 0.7 0.2
v -1.2 0.7 0.2
v -1.1 0.7 0.2
v 1.1 0.7 0.2
v 1.2 0.7 0.2
v 1.4 0.7 0.2
v 1.5 0.7 0.2
v 1.6 0.7 0.2
v -1.3 0.7 0.1
v -1.1 0.7 0.1
v 1.1 0.7 0.1
v 1.3 0.7 0.1
v -1.5 0.7 0
v -1.3 0.7 0
v 1.3 0.7 0
v 1.5 0.7 0
v -1.6 0.7 -0.1
v -1.5 0.7 -0.1
v 1.5 0.7 -0.1
v 1.6 0.7 -0.1
v -0.8 0.8 1.9
v 0.8 0.8 1.9
v -0.9 0.8 1.8
v -0.8 0.8 1.8
v 0.8 0.8 1.8
v 0.9 0.8 1.8
v -1 0.8 1.7
v -0.9 0.8 1.7
v -0.8 0.8 1.7
v 0.8 0.8 1.7
v 0.9 0.8 1.7
v 1 0.8 1.7
v -1 0.8 0.4
v -0.9 0.8 0.4
v 0.9 0.8 0.4
v 1 0.8 0.4
v -1 0.8 0.2
v -0.9 0.8 0.2
v 0.9 0.8 0.2
v 1 0.8 0.2
v -1 0.8 -1.1
v -0.9 0.8 -1.1
v -0.8 0.8 -1.1
v 0.8 0.8 -1.1
v 0.9 0.8 -1.1
v -0.9 0.8 -1.2
v -0.8 0.8 -1.2
v 0.8 0.8 -1.2
v 1 0.8 -1.2
v -0.8 0.8 -1.3
v 0.8 0.8 -1.3
v -0.7 0.3 1.7
v 0.7 0.3 1.7
v -0.8 0.3 1.6
v -0.7 0.3 1.6
v 0.7 0.3 1.6
v 0.8 0.3 1.6
v -0.8 0.3 -1
v -0.7 0.3 -1
v 0.7 0.3 -1
v 0.8 0.3 -1
v -0.7 0.3 -1.1
v 0.7 0.3 -1.1
v -0.7 0.8 1.8
v 0.7 0.8 1.8
v -0.8 0.8 1.7
v -0.7 0.8 1.7
v 0.7 0.8 1.7
v 0.8 0.8 1.7
v -0.9 0.8 1.6
v -0.8 0.8 1.6
v -0.7 0.8 1.6
v 0.7 0.8 1.6
v 0.8 0.8 1.6
v 0.9 0.8 1.6
v -1.4 0.8 0.4
v -1.2 0.8 0.4
v -1 0.8 0.4
v 1 0.8 0.4
v 1.2 0.8 0.4
v 1.4 0.8 0.4
v -1.5 0.8 0.3
v -1.4 0.8 0.3
v -1.2 0.8 0.3
v -1.1 0.8 0.3
v 1.1 0.8 0.3
v 1.2 0.8 0.3
v 1.4 0.8 0.3
v 1.5 0.8 0.3
v -1.6 0.8 0.2
v -1.5 0.8 0.2
v -1.4 0.8 0.2
v -1.1 0.8 0.2
v -1 0.8 0.2
v 1 0.8 0.2
v 1.1 0.8 0.2
v 1.4 0.8 0.2
v 1.5 0.8 0.2
v 1.6 0.8 0.2
v -1.5 0.8 0
v 1.5 0.8 0
v -1.6 0.8 -0.1
v -1.5 0.8 -0.1
v 1.5 0.8 -0.1
v 1.6 0.8 -0.1
v -0.9 0.8 -1
v -0.8 0.8 -1
v -0.7 0.8 -1
v 0.7 0.8 -1
v 0.8 0.8 -1
v 0.9 0.8 -1
v -0.8 0.8 -1.1
v -0.7 0.8 -1.1
v 0.7 0.8 -1.1
v 0.8 0.8 -1.1
v -0.7 0.8 -1.2
v 0.7 0.8 -1.2
v -0.8 0.9 1.9
v 0.8 0.9 1.9
v -0.9 0.9 1.8
v -0.8 0.9 1.8
v -0.7 0.9 1.8
v 0.7 0.9 1.8
v 0.8 0.9 1.8
v 0.9 0.9 1.8
v -1 0.9 1.7
v -0.9 0.9 1.7
v -0.8 0.9 1.7
v -0.7 0.9 1.7
v 0.7 0.9 1.7
v 0.8 0.9 1.7
v 0.9 0.9 1.7
v 1 0.9 1.7
v -0.9 0.9 1.6
v -0.8 0.9 1.6
v 0.8 0.9 1.6
v 0.9 0.9 1.6
v -1.4 0.9 0.3
v -1.1 0.9 0.3
v 1.1 0.9 0.3
v 1.4 0.9 0.3
v -1.5 0.9 0.2
v -1.4 0.9 0.2
v 1.4 0.9 0.2
v 1.5 0.9 0.2
v -1.3 0.9 0.1
v -1.1 0.9 0.1
v 1.1 0.9 0.1
v 1.3 0.9 0.1
v -1.5 0.9 0
v -1.3 0.9 0
v 1.3 0.9 0
v 1.5 0.9 0
v -0.9 0.9 -1
v -0.8 0.9 -1
v 0.8 0.9 -1
v 0.9 0.9 -1
v -1 0.9 -1.1
v -0.9 0.9 -1.1
v -0.8 0.9 -1.1
v -0.7 0.9 -1.1
v 0.7 0.9 -1.1
v 0.8 0.9 -1.1
v -0.9 0.9 -1.2
v -0.8 0.9 -1.2
v -0.7 0.9 -1.2
v 0.7 0.9 -1.2
v 0.8 0.9 -1.2
v 1 0.9 -1.2
v -0.8 0.9 -1.3
v 0.8 0.9 -1.3

# faces
f 3/2/1 2/2/1 1/2/1
f 4/2/1 2/2/1 3/2/1
f 7/2/1 6/2/1 5/2/1
f 8/2/1 6/2/1 7/2/1
f 10/1/1 9/1/1 8/1/1
f 11/1/1 9/1/1 10/1/1
f 14/2/1 13/2/1 12/2/1
f 15/2/1 13/2/1 14/2/1
f 17/1/1 16/1/1 15/1/1
f 18/1/1 16/1/1 17/1/1
f 21/1/1 20/1/1 19/1/1
f 22/1/1 20/1/1 21/1/1
f 23/1/1 20/1/1 22/1/1
f 28/3/1 25/3/1 24/3/1
f 28/3/1 27/3/1 26/3/1
f 28/3/1 26/3/1 25/3/1
f 29/3/1 27/3/1 28/3/1
f 32/4/1 31/4/1 30/4/1
f 33/4/1 31/4/1 32/4/1
f 35/4/1 32/4/1 30/4/1
f 36/4/1 32/4/1 35/4/1
f 37/4/1 31/4/1 33/4/1
f 38/4/1 31/4/1 37/4/1
f 40/3/1 35/3/1 34/3/1
f 41/3/1 35/3/1 40/3/1
f 42/3/1 39/3/1 38/3/1
f 43/3/1 39/3/1 42/3/1
f 47/4/1 45/4/1 44/4/1
f 48/4/1 45/4/1 47/4/1
f 52/4/1 47/4/1 46/4/1
f 52/4/1 48/4/1 47/4/1
f 52/4/1 49/4/1 48/4/1
f 53/4/1 49/4/1 52/4/1
f 57/4/1 51/4/1 50/4/1
f 58/4/1 51/4/1 57/4/1
f 59/4/1 55/4/1 54/4/1
f 60/4/1 55/4/1 59/4/1
f 62/3/1 57/3/1 56/3/1
f 63/3/1 57/3/1 62/3/1
f 64/3/1 61/3/1 60/3/1
f 65/3/1 61/3/1 64/3/1
f 71/4/1 67/4/1 66/4/1
f 72/4/1 67/4/1 71/4/1
f 73/4/1 69/4/1 68/4/1
f 74/4/1 69/4/1 73/4/1
f 76/4/1 71/4/1 70/4/1
f 77/4/1 71/4/1 76/4/1
f 78/4/1 75/4/1 74/4/1
f 79/4/1 75/4/1 78/4/1
f 84/4/1 81/4/1 80/4/1
f 85/4/1 81/4/1 84/4/1
f 86/4/1 83/4/1 82/4/1
f 87/4/1 83/4/1 86/4/1
f 93/4/1 89/4/1 88/4/1
f 94/4/1 89/4/1 93/4/1
f 95/4/1 91/4/1 90/4/1
f 96/4/1 91/4/1 95/4/1
f 98/3/1 93/3/1 92/3/1
f 99/3/1 93/3/1 98/3/1
f 100/3/1 97/3/1 96/3/1
f 101/3/1 97/3/1 100/3/1
f 105/4/1 103/4/1 102/4/1
f 106/4/1 103/4/1 105/4/1
f 108/3/1 105/3/1 104/3/1
f 109/3/1 105/3/1 108/3/1
f 110/3/1 107/3/1 106/3/1
f 111/3/1 107/3/1 110/3/1
f 114/3/1 113/3/1 112/3/1
f 115/3/1 113/3/1 114/3/1
f 119/1/1 117/1/1 116/1/1
f 120/1/1 119/1/1 118/1/1
f 121/1/1 117/1/1 119/1/1
f 121/1/1 119/1/1 120/1/1
f 124/1/1 123/1/1 122/1/1
f 125/1/1 123/1/1 124/1/1
f 128/2/1 127/2/1 126/2/1
f 129/2/1 127/2/1 128/2/1
f 130/2/2 131/2/2 132/2/2
f 132/2/2 131/2/2 133/2/2
f 134/1/2 135/1/2 136/1/2
f 136/1/2 135/1/2 137/1/2
f 138/1/2 139/1/2 141/1/2
f 140/1/2 141/1/2 142/1/2
f 141/1/2 139/1/2 143/1/2
f 142/1/2 141/1/2 143/1/2
f 144/3/2 145/3/2 146/3/2
f 146/3/2 145/3/2 147/3/2
f 148/4/2 149/4/2 151/4/2
f 151/4/2 149/4/2 152/4/2
f 150/3/2 151/3/2 154/3/2
f 154/3/2 151/3/2 155/3/2
f 152/3/2 153/3/2 156/3/2
f 156/3/2 153/3/2 157/3/2
f 158/4/2 159/4/2 163/4/2
f 163/4/2 159/4/2 164/4/2
f 160/4/2 161/4/2 165/4/2
f 165/4/2 161/4/2 166/4/2
f 162/3/2 163/3/2 168/3/2
f 168/3/2 163/3/2 169/3/2
f 166/3/2 167/3/2 170/3/2
f 170/3/2 167/3/2 171/3/2
f 172/4/2 173/4/2 176/4/2
f 176/4/2 173/4/2 177/4/2
f 174/4/2 175/4/2 178/4/2
f 178/4/2 175/4/2 179/4/2
f 180/4/2 181/4/2 185/4/2
f 185/4/2 181/4/2 186/4/2
f 182/4/2 183/4/2 187/4/2
f 187/4/2 183/4/2 188/4/2
f 184/4/2 185/4/2 190/4/2
f 190/4/2 185/4/2 191/4/2
f 188/4/2 189/4/2 192/4/2
f 192/4/2 189/4/2 193/4/2
f 194/4/2 195/4/2 197/4/2
f 197/4/2 195/4/2 198/4/2
f 196/4/2 197/4/2 202/4/2
f 197/4/2 198/4/2 202/4/2
f 198/4/2 199/4/2 202/4/2
f 202/4/2 199/4/2 203/4/2
f 200/4/2 201/4/2 207/4/2
f 207/4/2 201/4/2 208/4/2
f 204/4/2 205/4/2 209/4/2
f 209/4/2 205/4/2 210/4/2
f 206/3/2 207/3/2 212/3/2
f 212/3/2 207/3/2 213/3/2
f 210/3/2 211/3/2 214/3/2
f 214/3/2 211/3/2 215/3/2
f 216/4/2 217/4/2 218/4/2
f 218/4/2 217/4/2 219/4/2
f 216/4/2 218/4/2 221/4/2
f 221/4/2 218/4/2 222/4/2
f 219/4/2 217/4/2 223/4/2
f 223/4/2 217/4/2 224/4/2
f 220/3/2 221/3/2 225/3/2
f 225/3/2 221/3/2 226/3/2
f 227/3/2 228/3/2 231/3/2
f 229/3/2 230/3/2 231/3/2
f 228/3/2 229/3/2 231/3/2
f 231/3/2 230/3/2 232/3/2
f 233/1/2 234/1/2 235/1/2
f 235/1/2 234/1/2 236/1/2
f 236/1/2 234/1/2 237/1/2
f 238/2/2 239/2/2 240/2/2
f 240/2/2 239/2/2 241/2/2
f 241/1/2 242/1/2 243/1/2
f 243/1/2 242/1/2 244/1/2
f 245/2/2 246/2/2 247/2/2
f 247/2/2 246/2/2 248/2/2
f 248/1/2 249/1/2 250/1/2
f 250/1/2 249/1/2 251/1/2
f 252/2/2 253/2/2 254/2/2
f 254/2/2 253/2/2 255/2/2
f 258/3/3 257/3/3 256/3/3
f 259/3/3 257/3/3 258/3/3
f 263/3/3 261/3/3 260/3/3
f 264/3/3 261/3/3 263/3/3
f 265/4/3 263/4/3 262/4/3
f 266/4/3 263/4/3 265/4/3
f 268/3/3 267/3/3 266/3/3
f 269/3/3 267/3/3 268/3/3
f 273/3/3 271/3/3 270/3/3
f 274/3/3 271/3/3 273/3/3
f 275/4/3 273/4/3 272/4/3
f 276/4/3 273/4/3 275/4/3
f 280/4/3 278/4/3 277/4/3
f 281/4/3 280/4/3 279/4/3
f 282/4/3 278/4/3 280/4/3
f 282/4/3 280/4/3 281/4/3
f 283/4/3 278/4/3 282/4/3
f 284/4/3 278/4/3 283/4/3
f 287/4/3 286/4/3 285/4/3
f 288/4/3 286/4/3 287/4/3
f 290/3/3 289/3/3 288/3/3
f 291/3/3 289/3/3 290/3/3
f 295/4/3 293/4/3 292/4/3
f 296/4/3 293/4/3 295/4/3
f 297/4/3 295/4/3 294/4/3
f 298/4/3 295/4/3 297/4/3
f 301/4/3 300/4/3 299/4/3
f 302/4/3 300/4/3 301/4/3
f 304/4/3 303/4/3 302/4/3
f 305/4/3 303/4/3 304/4/3
f 308/4/3 307/4/3 306/4/3
f 309/4/3 307/4/3 308/4/3
f 312/4/3 311/4/3 310/4/3
f 313/4/3 311/4/3 312/4/3
f 317/2/3 315/2/3 314/2/3
f 318/2/3 315/2/3 317/2/3
f 319/1/3 317/1/3 316/1/3
f 319/1/3 318/1/3 317/1/3
f 320/1/3 318/1/3 319/1/3
f 321/4/3 320/4/3 319/4/3
f 322/4/3 320/4/3 321/4/3
f 325/4/3 324/4/3 323/4/3
f 326/4/3 324/4/3 325/4/3
f 327/1/3 326/1/3 325/1/3
f 328/1/3 326/1/3 327/1/3
f 329/1/3 326/1/3 328/1/3
f 330/2/3 329/2/3 328/2/3
f 331/2/3 329/2/3 330/2/3
f 334/2/3 333/2/3 332/2/3
f 335/2/3 333/2/3 334/2/3
f 337/1/3 336/1/3 335/1/3
f 338/1/3 336/1/3 337/1/3
f 339/1/3 336/1/3 338/1/3
f 342/1/3 341/1/3 340/1/3
f 344/1/3 341/1/3 342/1/3
f 345/1/3 341/1/3 344/1/3
f 346/2/3 344/2/3 343/2/3
f 347/2/3 344/2/3 346/2/3
f 350/2/3 349/2/3 348/2/3
f 351/2/3 349/2/3 350/2/3
f 353/1/3 352/1/3 351/1/3
f 354/1/3 352/1/3 353/1/3
f 358/1/3 356/1/3 355/1/3
f 359/1/3 356/1/3 358/1/3
f 360/2/3 358/2/3 357/2/3
f 361/2/3 358/2/3 360/2/3
f 365/3/3 363/3/3 362/3/3
f 366/3/3 363/3/3 365/3/3
f 367/4/3 365/4/3 364/4/3
f 368/4/3 365/4/3 367/4/3
f 371/4/3 370/4/3 369/4/3
f 372/4/3 370/4/3 371/4/3
f 374/3/3 373/3/3 372/3/3
f 375/3/3 373/3/3 374/3/3
f 379/3/3 377/3/3 376/3/3
f 380/3/3 377/3/3 379/3/3
f 381/4/3 379/4/3 378/4/3
f 382/4/3 379/4/3 381/4/3
f 384/3/3 383/3/3 382/3/3
f 385/3/3 383/3/3 384/3/3
f 388/3/3 387/3/3 386/3/3
f 389/3/3 387/3/3 388/3/3
f 390/3/4 391/3/4 392/3/4
f 392/3/4 391/3/4 393/3/4
f 394/3/4 395/3/4 397/3/4
f 397/3/4 395/3/4 398/3/4
f 396/4/4 397/4/4 399/4/4
f 399/4/4 397/4/4 400/4/4
f 400/3/4 401/3/4 402/3/4
f 402/3/4 401/3/4 403/3/4
f 404/3/4 405/3/4 407/3/4
f 407/3/4 405/3/4 408/3/4
f 406/4/4 407/4/4 409/4/4
f 409/4/4 407/4/4 410/4/4
f 411/4/4 412/4/4 413/4/4
f 413/4/4 412/4/4 414/4/4
f 414/3/4 415/3/4 416/3/4
f 416/3/4 415/3/4 417/3/4
f 418/1/4 419/1/4 420/1/4
f 418/1/4 420/1/4 422/1/4
f 420/1/4 421/1/4 422/1/4
f 422/1/4 421/1/4 423/1/4
f 422/4/4 423/4/4 424/4/4
f 424/4/4 423/4/4 425/4/4
f 426/4/4 427/4/4 428/4/4
f 428/4/4 427/4/4 429/4/4
f 428/1/4 429/1/4 430/1/4
f 430/1/4 429/1/4 431/1/4
f 428/1/4 430/1/4 432/1/4
f 432/1/4 430/1/4 433/1/4
f 434/1/4 435/1/4 436/1/4
f 436/1/4 435/1/4 437/1/4
f 438/1/4 439/1/4 440/1/4
f 440/1/4 439/1/4 441/1/4
f 442/1/4 443/1/4 445/1/4
f 443/1/4 444/1/4 445/1/4
f 445/1/4 444/1/4 446/1/4
f 447/1/4 448/1/4 449/1/4
f 449/1/4 448/1/4 450/1/4
f 450/1/4 448/1/4 451/1/4
f 452/2/4 453/2/4 454/2/4
f 454/2/4 453/2/4 455/2/4
f 456/2/4 457/2/4 458/2/4
f 458/2/4 457/2/4 459/2/4
f 460/4/4 461/4/4 462/4/4
f 462/4/4 461/4/4 463/4/4
f 464/4/4 465/4/4 466/4/4
f 466/4/4 465/4/4 467/4/4
f 468/4/4 469/4/4 471/4/4
f 471/4/4 469/4/4 472/4/4
f 470/4/4 471/4/4 473/4/4
f 473/4/4 471/4/4 474/4/4
f 475/4/4 476/4/4 477/4/4
f 477/4/4 476/4/4 478/4/4
f 478/4/4 479/4/4 480/4/4
f 480/4/4 479/4/4 481/4/4
f 482/3/4 483/3/4 485/3/4
f 485/3/4 483/3/4 486/3/4
f 484/4/4 485/4/4 487/4/4
f 487/4/4 485/4/4 488/4/4
f 489/4/4 490/4/4 492/4/4
f 491/4/4 492/4/4 493/4/4
f 492/4/4 490/4/4 494/4/4
f 493/4/4 492/4/4 494/4/4
f 494/4/4 490/4/4 495/4/4
f 495/4/4 490/4/4 496/4/4
f 497/4/4 498/4/4 499/4/4
f 499/4/4 498/4/4 500/4/4
f 501/3/4 502/3/4 504/3/4
f 504/3/4 502/3/4 505/3/4
f 503/4/4 504/4/4 506/4/4
f 506/4/4 504/4/4 507/4/4
f 507/3/4 508/3/4 509/3/4
f 509/3/4 508/3/4 510/3/4
f 511/3/4 512/3/4 513/3/4
f 513/3/4 512/3/4 514/3/4
f 518/4/5 516/4/5 515/4/5
f 519/4/5 516/4/5 518/4/5
f 522/4/5 518/4/5 517/4/5
f 522/4/5 520/4/5 519/4/5
f 522/4/5 519/4/5 518/4/5
f 523/4/5 520/4/5 522/4/5
f 525/4/5 522/4/5 521/4/5
f 525/4/5 524/4/5 523/4/5
f 525/4/5 523/4/5 522/4/5
f 526/4/5 524/4/5 525/4/5
f 527/4/5 524/4/5 526/4/5
f 528/4/5 524/4/5 527/4/5
f 529/4/5 527/4/5 526/4/5
f 530/4/5 527/4/5 529/4/5
f 531/4/5 527/4/5 530/4/5
f 532/4/5 527/4/5 531/4/5
f 533/4/5 531/4/5 530/4/5
f 534/4/5 531/4/5 533/4/5
f 540/4/5 536/4/5 535/4/5
f 541/4/5 536/4/5 540/4/5
f 542/4/5 538/4/5 537/4/5
f 543/4/5 538/4/5 542/4/5
f 545/4/5 540/4/5 539/4/5
f 546/4/5 540/4/5 545/4/5
f 547/4/5 544/4/5 543/4/5
f 548/4/5 544/4/5 547/4/5
f 553/4/5 550/4/5 549/4/5
f 554/4/5 550/4/5 553/4/5
f 557/4/5 552/4/5 551/4/5
f 558/4/5 552/4/5 557/4/5
f 559/4/5 555/4/5 554/4/5
f 560/4/5 555/4/5 559/4/5
f 561/4/5 557/4/5 556/4/5
f 562/4/5 557/4/5 561/4/5
f 566/4/5 564/4/5 563/4/5
f 567/4/5 564/4/5 566/4/5
f 568/4/5 564/4/5 567/4/5
f 569/4/5 564/4/5 568/4/5
f 571/4/5 566/4/5 565/4/5
f 571/4/5 567/4/5 566/4/5
f 572/4/5 567/4/5 571/4/5
f 573/4/5 570/4/5 569/4/5
f 573/4/5 569/4/5 568/4/5
f 574/4/5 570/4/5 573/4/5
f 575/4/5 571/4/5 565/4/5
f 578/4/5 570/4/5 574/4/5
f 579/4/5 576/4/5 575/4/5
f 579/4/5 575/4/5 565/4/5
f 580/4/5 576/4/5 579/4/5
f 581/4/5 576/4/5 580/4/5
f 582/4/5 578/4/5 577/4/5
f 583/4/5 570/4/5 578/4/5
f 583/4/5 578/4/5 582/4/5
f 584/4/5 570/4/5 583/4/5
f 585/4/5 581/4/5 580/4/5
f 585/4/5 582/4/5 581/4/5
f 585/4/5 583/4/5 582/4/5
f 586/4/5 583/4/5 585/4/5
f 593/1/5 588/1/5 587/1/5
f 594/4/5 589/4/5 588/4/5
f 594/1/5 588/1/5 593/1/5
f 595/4/5 589/4/5 594/4/5
f 596/4/5 591/4/5 590/4/5
f 597/1/5 592/1/5 591/1/5
f 597/4/5 591/4/5 596/4/5
f 598/1/5 592/1/5 597/1/5
f 604/2/5 600/2/5 599/2/5
f 605/2/5 600/2/5 604/2/5
f 606/2/5 602/2/5 601/2/5
f 607/2/5 602/2/5 606/2/5
f 610/2/5 604/2/5 603/2/5
f 611/1/5 605/1/5 604/1/5
f 611/2/5 604/2/5 610/2/5
f 612/1/5 605/1/5 611/1/5
f 615/1/5 607/1/5 606/1/5
f 616/2/5 608/2/5 607/2/5
f 616/1/5 607/1/5 615/1/5
f 617/2/5 608/2/5 616/2/5
f 619/1/5 613/1/5 612/1/5
f 619/1/5 611/1/5 610/1/5
f 619/1/5 612/1/5 611/1/5
f 620/1/5 613/1/5 619/1/5
f 621/1/5 615/1/5 614/1/5
f 621/1/5 617/1/5 616/1/5
f 621/1/5 616/1/5 615/1/5
f 622/1/5 617/1/5 621/1/5
f 623/2/5 610/2/5 609/2/5
f 623/1/5 619/1/5 610/1/5
f 624/1/5 619/1/5 623/1/5
f 625/1/5 617/1/5 622/1/5
f 626/2/5 618/2/5 617/2/5
f 626/1/5 617/1/5 625/1/5
f 627/2/5 623/2/5 609/2/5
f 628/2/5 623/2/5 627/2/5
f 629/2/5 618/2/5 626/2/5
f 630/2/5 618/2/5 629/2/5
f 634/3/5 632/3/5 631/3/5
f 635/3/5 632/3/5 634/3/5
f 638/3/5 634/3/5 633/3/5
f 639/3/5 634/3/5 638/3/5
f 640/3/5 636/3/5 635/3/5
f 641/3/5 636/3/5 640/3/5
f 643/3/5 638/3/5 637/3/5
f 644/3/5 638/3/5 643/3/5
f 645/3/5 642/3/5 641/3/5
f 646/3/5 642/3/5 645/3/5
f 651/3/5 648/3/5 647/3/5
f 652/3/5 648/3/5 651/3/5
f 655/3/5 650/3/5 649/3/5
f 656/3/5 653/3/5 652/3/5
f 657/3/5 653/3/5 656/3/5
f 658/3/5 655/3/5 654/3/5
f 659/3/5 650/3/5 655/3/5
f 659/3/5 655/3/5 658/3/5
f 660/3/5 658/3/5 657/3/5
f 661/3/5 658/3/5 660/3/5
f 662/4/6 663/4/6 665/4/6
f 665/4/6 663/4/6 666/4/6
f 664/4/6 665/4/6 668/4/6
f 666/4/6 667/4/6 668/4/6
f 665/4/6 666/4/6 668/4/6
f 668/4/6 667/4/6 669/4/6
f 669/4/6 667/4/6 670/4/6
f 670/4/6 667/4/6 671/4/6
f 669/4/6 670/4/6 672/4/6
f 672/4/6 670/4/6 673/4/6
f 674/4/6 675/4/6 677/4/6
f 677/4/6 675/4/6 678/4/6
f 676/4/6 677/4/6 681/4/6
f 681/4/6 677/4/6 682/4/6
f 678/4/6 679/4/6 683/4/6
f 683/4/6 679/4/6 684/4/6
f 686/2/6 687/2/6 693/2/6
f 687/1/6 688/1/6 694/1/6
f 693/2/6 687/2/6 694/2/6
f 694/1/6 688/1/6 695/1/6
f 689/1/6 690/1/6 696/1/6
f 690/2/6 691/2/6 697/2/6
f 696/1/6 690/1/6 697/1/6
f 697/2/6 691/2/6 698/2/6
f 692/2/6 693/2/6 701/2/6
f 701/2/6 693/2/6 702/2/6
f 695/1/6 688/1/6 703/1/6
f 703/1/6 688/1/6 704/1/6
f 689/1/6 696/1/6 705/1/6
f 705/1/6 696/1/6 706/1/6
f 698/2/6 699/2/6 707/2/6
f 707/2/6 699/2/6 708/2/6
f 700/2/6 701/2/6 710/2/6
f 708/2/6 709/2/6 711/2/6
f 700/2/6 710/2/6 712/2/6
f 712/2/6 710/2/6 713/2/6
f 711/2/6 709/2/6 714/2/6
f 714/2/6 709/2/6 715/2/6
f 680/4/6 681/4/6 716/4/6
f 716/4/6 681/4/6 717/4/6
f 684/4/6 685/4/6 720/4/6
f 720/4/6 685/4/6 721/4/6
f 717/4/6 718/4/6 722/4/6
f 722/4/6 718/4/6 723/4/6
f 719/4/6 720/4/6 724/4/6
f 724/4/6 720/4/6 725/4/6
f 723/4/6 724/4/6 726/4/6
f 726/4/6 724/4/6 727/4/6
f 728/3/6 729/3/6 731/3/6
f 731/3/6 729/3/6 732/3/6
f 732/3/6 729/3/6 733/3/6
f 733/3/6 729/3/6 734/3/6
f 730/3/6 731/3/6 737/3/6
f 731/3/6 732/3/6 737/3/6
f 737/3/6 732/3/6 738/3/6
f 738/3/6 732/3/6 739/3/6
f 733/3/6 734/3/6 740/3/6
f 734/3/6 735/3/6 740/3/6
f 740/3/6 735/3/6 741/3/6
f 741/3/6 735/3/6 742/3/6
f 737/3/6 738/3/6 744/3/6
f 736/3/6 737/3/6 744/3/6
f 744/3/6 738/3/6 745/3/6
f 742/3/6 743/3/6 746/3/6
f 741/3/6 742/3/6 746/3/6
f 746/3/6 743/3/6 747/3/6
f 748/1/6 749/1/6 753/1/6
f 750/1/6 751/1/6 754/1/6
f 752/1/6 753/1/6 756/1/6
f 753/1/6 749/1/6 756/1/6
f 756/1/6 749/1/6 757/1/6
f 754/1/6 755/1/6 758/1/6
f 750/1/6 754/1/6 758/1/6
f 758/1/6 755/1/6 759/1/6
f 752/1/6 756/1/6 760/1/6
f 760/1/6 756/1/6 761/1/6
f 759/1/6 755/1/6 762/1/6
f 762/1/6 755/1/6 763/1/6
f 736/3/6 744/3/6 764/3/6
f 747/3/6 743/3/6 767/3/6
f 764/3/6 765/3/6 768/3/6
f 736/3/6 764/3/6 768/3/6
f 768/3/6 765/3/6 769/3/6
f 769/3/6 765/3/6 770/3/6
f 766/3/6 767/3/6 773/3/6
f 770/3/6 771/3/6 774/3/6
f 769/3/6 770/3/6 774/3/6
f 774/3/6 771/3/6 775/3/6
f 775/3/6 771/3/6 776/3/6
f 772/3/6 773/3/6 777/3/6
f 773/3/6 767/3/6 778/3/6
f 777/3/6 773/3/6 778/3/6
f 767/3/6 743/3/6 779/3/6
f 778/3/6 767/3/6 779/3/6
f 775/3/6 776/3/6 780/3/6
f 777/3/6 778/3/6 780/3/6
f 776/3/6 777/3/6 780/3/6
f 780/3/6 778/3/6 781/3/6
