# MagicaVoxel @ Ephtracy

# group
o 

# material
mtllib Shuriken.mtl
usemtl palette

# normals
vn -1 0 0
vn 1 0 0
vn 0 0 1
vn 0 0 -1
vn 0 -1 0
vn 0 1 0

# texcoords
vt 0.970703 0.5
vt 0.974609 0.5
vt 0.978516 0.5
vt 0.982422 0.5

# verts
v -0.6 1.9 0.1
v -0.6 1.9 0
v -0.6 2.2 0.1
v -0.6 2.2 0
v -0.5 1.8 0.1
v -0.5 1.8 0
v -0.5 1.9 0.1
v -0.5 1.9 0
v -0.4 1.7 0.1
v -0.4 1.7 0
v -0.4 1.8 0.1
v -0.4 1.8 0
v -0.2 1.2 0.1
v -0.2 1.2 0
v -0.2 1.3 0.1
v -0.2 1.3 0
v -0.2 1.6 0.1
v -0.2 1.6 0
v -0.2 1.7 0.1
v -0.2 1.7 0
v -0.2 2.1 0.1
v -0.2 2.1 0
v -0.2 2.2 0.1
v -0.2 2.2 0
v -0.1 1.3 0.1
v -0.1 1.3 0
v -0.1 1.6 0.1
v -0.1 1.6 0
v -0.1 2.2 0.1
v -0.1 2.2 0
v -0.1 2.4 0.1
v -0.1 2.4 0
v -5.96046e-08 2.4 0.1
v -5.96046e-08 2.4 0
v -5.96046e-08 2.5 0.1
v -5.96046e-08 2.5 0
v 0.1 2.5 0.1
v 0.1 2.5 0
v 0.1 2.6 0.1
v 0.1 2.6 0
v 0.2 1.8 0.1
v 0.2 1.8 0
v 0.2 2 0.1
v 0.2 2 0
v 0.7 1.6 0.1
v 0.7 1.6 0
v 0.7 1.7 0.1
v 0.7 1.7 0
v -0.5 2.1 0.1
v -0.5 2.1 0
v -0.5 2.2 0.1
v -0.5 2.2 0
v -5.96046e-08 1.8 0.1
v -5.96046e-08 1.8 0
v -5.96046e-08 2 0.1
v -5.96046e-08 2 0
v 0.1 1.2 0.1
v 0.1 1.2 0
v 0.1 1.3 0.1
v 0.1 1.3 0
v 0.2 1.3 0.1
v 0.2 1.3 0
v 0.2 1.4 0.1
v 0.2 1.4 0
v 0.3 1.4 0.1
v 0.3 1.4 0
v 0.3 1.6 0.1
v 0.3 1.6 0
v 0.3 2.2 0.1
v 0.3 2.2 0
v 0.3 2.5 0.1
v 0.3 2.5 0
v 0.4 1.6 0.1
v 0.4 1.6 0
v 0.4 1.7 0.1
v 0.4 1.7 0
v 0.4 2.1 0.1
v 0.4 2.1 0
v 0.4 2.2 0.1
v 0.4 2.2 0
v 0.4 2.5 0.1
v 0.4 2.5 0
v 0.4 2.6 0.1
v 0.4 2.6 0
v 0.6 2 0.1
v 0.6 2 0
v 0.6 2.1 0.1
v 0.6 2.1 0
v 0.7 1.9 0.1
v 0.7 1.9 0
v 0.7 2 0.1
v 0.7 2 0
v 0.8 1.6 0.1
v 0.8 1.6 0
v 0.8 1.9 0.1
v 0.8 1.9 0
v -0.6 1.9 0.1
v -0.6 2.2 0.1
v -0.5 1.8 0.1
v -0.5 1.9 0.1
v -0.5 2 0.1
v -0.5 2.1 0.1
v -0.5 2.2 0.1
v -0.4 1.7 0.1
v -0.4 1.8 0.1
v -0.4 1.9 0.1
v -0.2 1.2 0.1
v -0.2 1.3 0.1
v -0.2 1.6 0.1
v -0.2 1.7 0.1
v -0.2 1.8 0.1
v -0.2 2 0.1
v -0.2 2.1 0.1
v -0.2 2.2 0.1
v -0.1 1.3 0.1
v -0.1 1.6 0.1
v -0.1 1.7 0.1
v -0.1 1.8 0.1
v -0.1 2 0.1
v -0.1 2.1 0.1
v -0.1 2.2 0.1
v -0.1 2.4 0.1
v -5.96046e-08 1.3 0.1
v -5.96046e-08 1.6 0.1
v -5.96046e-08 1.7 0.1
v -5.96046e-08 1.8 0.1
v -5.96046e-08 2 0.1
v -5.96046e-08 2.1 0.1
v -5.96046e-08 2.2 0.1
v -5.96046e-08 2.4 0.1
v -5.96046e-08 2.5 0.1
v 0.1 1.2 0.1
v 0.1 1.3 0.1
v 0.1 1.4 0.1
v 0.1 2.4 0.1
v 0.1 2.5 0.1
v 0.1 2.6 0.1
v 0.2 1.3 0.1
v 0.2 1.4 0.1
v 0.2 1.6 0.1
v 0.2 1.7 0.1
v 0.2 1.8 0.1
v 0.2 2 0.1
v 0.2 2.1 0.1
v 0.2 2.2 0.1
v 0.2 2.5 0.1
v 0.3 1.4 0.1
v 0.3 1.6 0.1
v 0.3 1.7 0.1
v 0.3 1.8 0.1
v 0.3 2 0.1
v 0.3 2.1 0.1
v 0.3 2.2 0.1
v 0.3 2.5 0.1
v 0.4 1.6 0.1
v 0.4 1.7 0.1
v 0.4 1.8 0.1
v 0.4 2 0.1
v 0.4 2.1 0.1
v 0.4 2.2 0.1
v 0.4 2.5 0.1
v 0.4 2.6 0.1
v 0.6 1.9 0.1
v 0.6 2 0.1
v 0.6 2.1 0.1
v 0.7 1.6 0.1
v 0.7 1.7 0.1
v 0.7 1.8 0.1
v 0.7 1.9 0.1
v 0.7 2 0.1
v 0.8 1.6 0.1
v 0.8 1.9 0.1
v -0.6 1.9 0
v -0.6 2.2 0
v -0.5 1.8 0
v -0.5 1.9 0
v -0.5 2 0
v -0.5 2.1 0
v -0.5 2.2 0
v -0.4 1.7 0
v -0.4 1.8 0
v -0.4 1.9 0
v -0.2 1.2 0
v -0.2 1.3 0
v -0.2 1.6 0
v -0.2 1.7 0
v -0.2 1.8 0
v -0.2 2 0
v -0.2 2.1 0
v -0.2 2.2 0
v -0.1 1.3 0
v -0.1 1.6 0
v -0.1 1.7 0
v -0.1 1.8 0
v -0.1 2 0
v -0.1 2.1 0
v -0.1 2.2 0
v -0.1 2.4 0
v -5.96046e-08 1.3 0
v -5.96046e-08 1.6 0
v -5.96046e-08 1.7 0
v -5.96046e-08 1.8 0
v -5.96046e-08 2 0
v -5.96046e-08 2.1 0
v -5.96046e-08 2.2 0
v -5.96046e-08 2.4 0
v -5.96046e-08 2.5 0
v 0.1 1.2 0
v 0.1 1.3 0
v 0.1 1.4 0
v 0.1 2.4 0
v 0.1 2.5 0
v 0.1 2.6 0
v 0.2 1.3 0
v 0.2 1.4 0
v 0.2 1.6 0
v 0.2 1.7 0
v 0.2 1.8 0
v 0.2 2 0
v 0.2 2.1 0
v 0.2 2.2 0
v 0.2 2.5 0
v 0.3 1.4 0
v 0.3 1.6 0
v 0.3 1.7 0
v 0.3 1.8 0
v 0.3 2 0
v 0.3 2.1 0
v 0.3 2.2 0
v 0.3 2.5 0
v 0.4 1.6 0
v 0.4 1.7 0
v 0.4 1.8 0
v 0.4 2 0
v 0.4 2.1 0
v 0.4 2.2 0
v 0.4 2.5 0
v 0.4 2.6 0
v 0.6 1.9 0
v 0.6 2 0
v 0.6 2.1 0
v 0.7 1.6 0
v 0.7 1.7 0
v 0.7 1.8 0
v 0.7 1.9 0
v 0.7 2 0
v 0.8 1.6 0
v 0.8 1.9 0
v -0.2 1.2 0.1
v 0.1 1.2 0.1
v -0.2 1.2 0
v 0.1 1.2 0
v 0.1 1.3 0.1
v 0.2 1.3 0.1
v 0.1 1.3 0
v 0.2 1.3 0
v 0.2 1.4 0.1
v 0.3 1.4 0.1
v 0.2 1.4 0
v 0.3 1.4 0
v -0.2 1.6 0.1
v -0.1 1.6 0.1
v 0.3 1.6 0.1
v 0.4 1.6 0.1
v 0.7 1.6 0.1
v 0.8 1.6 0.1
v -0.2 1.6 0
v -0.1 1.6 0
v 0.3 1.6 0
v 0.4 1.6 0
v 0.7 1.6 0
v 0.8 1.6 0
v -0.4 1.7 0.1
v -0.2 1.7 0.1
v 0.4 1.7 0.1
v 0.7 1.7 0.1
v -0.4 1.7 0
v -0.2 1.7 0
v 0.4 1.7 0
v 0.7 1.7 0
v -0.5 1.8 0.1
v -0.4 1.8 0.1
v -0.5 1.8 0
v -0.4 1.8 0
v -0.6 1.9 0.1
v -0.5 1.9 0.1
v -0.6 1.9 0
v -0.5 1.9 0
v -5.96046e-08 2 0.1
v 0.2 2 0.1
v -5.96046e-08 2 0
v 0.2 2 0
v 0.3 2.5 0.1
v 0.4 2.5 0.1
v 0.3 2.5 0
v 0.4 2.5 0
v -0.2 1.3 0.1
v -0.1 1.3 0.1
v -0.2 1.3 0
v -0.1 1.3 0
v -5.96046e-08 1.8 0.1
v 0.2 1.8 0.1
v -5.96046e-08 1.8 0
v 0.2 1.8 0
v 0.7 1.9 0.1
v 0.8 1.9 0.1
v 0.7 1.9 0
v 0.8 1.9 0
v 0.6 2 0.1
v 0.7 2 0.1
v 0.6 2 0
v 0.7 2 0
v -0.5 2.1 0.1
v -0.2 2.1 0.1
v 0.4 2.1 0.1
v 0.6 2.1 0.1
v -0.5 2.1 0
v -0.2 2.1 0
v 0.4 2.1 0
v 0.6 2.1 0
v -0.6 2.2 0.1
v -0.5 2.2 0.1
v -0.2 2.2 0.1
v -0.1 2.2 0.1
v 0.3 2.2 0.1
v 0.4 2.2 0.1
v -0.6 2.2 0
v -0.5 2.2 0
v -0.2 2.2 0
v -0.1 2.2 0
v 0.3 2.2 0
v 0.4 2.2 0
v -0.1 2.4 0.1
v -5.96046e-08 2.4 0.1
v -0.1 2.4 0
v -5.96046e-08 2.4 0
v -5.96046e-08 2.5 0.1
v 0.1 2.5 0.1
v -5.96046e-08 2.5 0
v 0.1 2.5 0
v 0.1 2.6 0.1
v 0.4 2.6 0.1
v 0.1 2.6 0
v 0.4 2.6 0

# faces
f 3/1/1 2/1/1 1/1/1
f 4/1/1 2/1/1 3/1/1
f 7/1/1 6/1/1 5/1/1
f 8/1/1 6/1/1 7/1/1
f 11/1/1 10/1/1 9/1/1
f 12/1/1 10/1/1 11/1/1
f 15/1/1 14/1/1 13/1/1
f 16/1/1 14/1/1 15/1/1
f 19/1/1 18/1/1 17/1/1
f 20/1/1 18/1/1 19/1/1
f 23/1/1 22/1/1 21/1/1
f 24/1/1 22/1/1 23/1/1
f 27/1/1 26/1/1 25/1/1
f 28/1/1 26/1/1 27/1/1
f 31/1/1 30/1/1 29/1/1
f 32/1/1 30/1/1 31/1/1
f 35/1/1 34/1/1 33/1/1
f 36/1/1 34/1/1 35/1/1
f 39/1/1 38/1/1 37/1/1
f 40/1/1 38/1/1 39/1/1
f 43/3/1 42/3/1 41/3/1
f 44/3/1 42/3/1 43/3/1
f 47/1/1 46/1/1 45/1/1
f 48/1/1 46/1/1 47/1/1
f 49/1/2 50/1/2 51/1/2
f 51/1/2 50/1/2 52/1/2
f 53/3/2 54/3/2 55/3/2
f 55/3/2 54/3/2 56/3/2
f 57/1/2 58/1/2 59/1/2
f 59/1/2 58/1/2 60/1/2
f 61/1/2 62/1/2 63/1/2
f 63/1/2 62/1/2 64/1/2
f 65/1/2 66/1/2 67/1/2
f 67/1/2 66/1/2 68/1/2
f 69/1/2 70/1/2 71/1/2
f 71/1/2 70/1/2 72/1/2
f 73/1/2 74/1/2 75/1/2
f 75/1/2 74/1/2 76/1/2
f 77/1/2 78/1/2 79/1/2
f 79/1/2 78/1/2 80/1/2
f 81/1/2 82/1/2 83/1/2
f 83/1/2 82/1/2 84/1/2
f 85/1/2 86/1/2 87/1/2
f 87/1/2 86/1/2 88/1/2
f 89/1/2 90/1/2 91/1/2
f 91/1/2 90/1/2 92/1/2
f 93/1/2 94/1/2 95/1/2
f 95/1/2 94/1/2 96/1/2
f 100/1/3 98/1/3 97/1/3
f 101/1/3 98/1/3 100/1/3
f 102/1/3 98/1/3 101/1/3
f 103/1/3 98/1/3 102/1/3
f 105/1/3 100/1/3 99/1/3
f 106/2/3 101/2/3 100/2/3
f 106/1/3 100/1/3 105/1/3
f 110/1/3 105/1/3 104/1/3
f 111/2/3 106/2/3 105/2/3
f 111/1/3 105/1/3 110/1/3
f 112/1/3 102/1/3 101/1/3
f 112/2/3 106/2/3 111/2/3
f 112/2/3 101/2/3 106/2/3
f 113/1/3 102/1/3 112/1/3
f 115/1/3 108/1/3 107/1/3
f 116/1/3 110/1/3 109/1/3
f 117/2/3 111/2/3 110/2/3
f 117/1/3 110/1/3 116/1/3
f 118/4/3 112/4/3 111/4/3
f 118/2/3 111/2/3 117/2/3
f 119/2/3 113/2/3 112/2/3
f 119/4/3 112/4/3 118/4/3
f 120/1/3 114/1/3 113/1/3
f 120/2/3 113/2/3 119/2/3
f 121/1/3 114/1/3 120/1/3
f 123/1/3 116/1/3 115/1/3
f 123/1/3 115/1/3 107/1/3
f 124/2/3 117/2/3 116/2/3
f 124/1/3 116/1/3 123/1/3
f 125/4/3 118/4/3 117/4/3
f 125/2/3 117/2/3 124/2/3
f 126/3/3 119/3/3 118/3/3
f 126/4/3 118/4/3 125/4/3
f 127/4/3 120/4/3 119/4/3
f 127/3/3 119/3/3 126/3/3
f 128/2/3 121/2/3 120/2/3
f 128/4/3 120/4/3 127/4/3
f 129/1/3 122/1/3 121/1/3
f 129/2/3 121/2/3 128/2/3
f 130/1/3 122/1/3 129/1/3
f 132/1/3 123/1/3 107/1/3
f 133/2/3 124/2/3 123/2/3
f 133/1/3 123/1/3 132/1/3
f 134/2/3 124/2/3 133/2/3
f 135/1/3 131/1/3 130/1/3
f 135/2/3 130/2/3 129/2/3
f 136/1/3 131/1/3 135/1/3
f 138/1/3 134/1/3 133/1/3
f 139/2/3 124/2/3 134/2/3
f 139/1/3 134/1/3 138/1/3
f 140/4/3 125/4/3 124/4/3
f 140/2/3 124/2/3 139/2/3
f 141/3/3 126/3/3 125/3/3
f 141/4/3 125/4/3 140/4/3
f 142/3/3 126/3/3 141/3/3
f 143/3/3 128/3/3 127/3/3
f 144/4/3 129/4/3 128/4/3
f 144/3/3 128/3/3 143/3/3
f 145/2/3 136/2/3 135/2/3
f 145/4/3 129/4/3 144/4/3
f 145/2/3 135/2/3 129/2/3
f 146/1/3 137/1/3 136/1/3
f 146/2/3 136/2/3 145/2/3
f 147/1/3 140/1/3 139/1/3
f 148/2/3 141/2/3 140/2/3
f 148/1/3 140/1/3 147/1/3
f 149/4/3 142/4/3 141/4/3
f 149/2/3 141/2/3 148/2/3
f 150/3/3 143/3/3 142/3/3
f 150/4/3 142/4/3 149/4/3
f 151/4/3 144/4/3 143/4/3
f 151/3/3 143/3/3 150/3/3
f 152/2/3 145/2/3 144/2/3
f 152/4/3 144/4/3 151/4/3
f 153/1/3 146/1/3 145/1/3
f 153/2/3 145/2/3 152/2/3
f 154/1/3 137/1/3 146/1/3
f 154/1/3 146/1/3 153/1/3
f 155/1/3 149/1/3 148/1/3
f 156/2/3 150/2/3 149/2/3
f 156/1/3 149/1/3 155/1/3
f 157/4/3 151/4/3 150/4/3
f 157/2/3 150/2/3 156/2/3
f 158/2/3 152/2/3 151/2/3
f 158/4/3 151/4/3 157/4/3
f 159/1/3 153/1/3 152/1/3
f 159/2/3 152/2/3 158/2/3
f 160/1/3 153/1/3 159/1/3
f 161/1/3 137/1/3 154/1/3
f 162/1/3 137/1/3 161/1/3
f 163/2/3 158/2/3 157/2/3
f 164/1/3 159/1/3 158/1/3
f 164/2/3 158/2/3 163/2/3
f 165/1/3 159/1/3 164/1/3
f 167/1/3 157/1/3 156/1/3
f 168/2/3 163/2/3 157/2/3
f 168/1/3 157/1/3 167/1/3
f 169/1/3 164/1/3 163/1/3
f 169/2/3 163/2/3 168/2/3
f 170/1/3 164/1/3 169/1/3
f 171/1/3 167/1/3 166/1/3
f 171/1/3 168/1/3 167/1/3
f 171/1/3 169/1/3 168/1/3
f 172/1/3 169/1/3 171/1/3
f 173/1/4 174/1/4 176/1/4
f 176/1/4 174/1/4 177/1/4
f 177/1/4 174/1/4 178/1/4
f 178/1/4 174/1/4 179/1/4
f 175/1/4 176/1/4 181/1/4
f 176/2/4 177/2/4 182/2/4
f 181/1/4 176/1/4 182/1/4
f 180/1/4 181/1/4 186/1/4
f 181/2/4 182/2/4 187/2/4
f 186/1/4 181/1/4 187/1/4
f 177/1/4 178/1/4 188/1/4
f 187/2/4 182/2/4 188/2/4
f 182/2/4 177/2/4 188/2/4
f 188/1/4 178/1/4 189/1/4
f 183/1/4 184/1/4 191/1/4
f 185/1/4 186/1/4 192/1/4
f 186/2/4 187/2/4 193/2/4
f 192/1/4 186/1/4 193/1/4
f 187/4/4 188/4/4 194/4/4
f 193/2/4 187/2/4 194/2/4
f 188/2/4 189/2/4 195/2/4
f 194/4/4 188/4/4 195/4/4
f 189/1/4 190/1/4 196/1/4
f 195/2/4 189/2/4 196/2/4
f 196/1/4 190/1/4 197/1/4
f 191/1/4 192/1/4 199/1/4
f 183/1/4 191/1/4 199/1/4
f 192/2/4 193/2/4 200/2/4
f 199/1/4 192/1/4 200/1/4
f 193/4/4 194/4/4 201/4/4
f 200/2/4 193/2/4 201/2/4
f 194/3/4 195/3/4 202/3/4
f 201/4/4 194/4/4 202/4/4
f 195/4/4 196/4/4 203/4/4
f 202/3/4 195/3/4 203/3/4
f 196/2/4 197/2/4 204/2/4
f 203/4/4 196/4/4 204/4/4
f 197/1/4 198/1/4 205/1/4
f 204/2/4 197/2/4 205/2/4
f 205/1/4 198/1/4 206/1/4
f 183/1/4 199/1/4 208/1/4
f 199/2/4 200/2/4 209/2/4
f 208/1/4 199/1/4 209/1/4
f 209/2/4 200/2/4 210/2/4
f 206/1/4 207/1/4 211/1/4
f 205/2/4 206/2/4 211/2/4
f 211/1/4 207/1/4 212/1/4
f 209/1/4 210/1/4 214/1/4
f 210/2/4 200/2/4 215/2/4
f 214/1/4 210/1/4 215/1/4
f 200/4/4 201/4/4 216/4/4
f 215/2/4 200/2/4 216/2/4
f 201/3/4 202/3/4 217/3/4
f 216/4/4 201/4/4 217/4/4
f 217/3/4 202/3/4 218/3/4
f 203/3/4 204/3/4 219/3/4
f 204/4/4 205/4/4 220/4/4
f 219/3/4 204/3/4 220/3/4
f 211/2/4 212/2/4 221/2/4
f 220/4/4 205/4/4 221/4/4
f 205/2/4 211/2/4 221/2/4
f 212/1/4 213/1/4 222/1/4
f 221/2/4 212/2/4 222/2/4
f 215/1/4 216/1/4 223/1/4
f 216/2/4 217/2/4 224/2/4
f 223/1/4 216/1/4 224/1/4
f 217/4/4 218/4/4 225/4/4
f 224/2/4 217/2/4 225/2/4
f 218/3/4 219/3/4 226/3/4
f 225/4/4 218/4/4 226/4/4
f 219/4/4 220/4/4 227/4/4
f 226/3/4 219/3/4 227/3/4
f 220/2/4 221/2/4 228/2/4
f 227/4/4 220/4/4 228/4/4
f 221/1/4 222/1/4 229/1/4
f 228/2/4 221/2/4 229/2/4
f 222/1/4 213/1/4 230/1/4
f 229/1/4 222/1/4 230/1/4
f 224/1/4 225/1/4 231/1/4
f 225/2/4 226/2/4 232/2/4
f 231/1/4 225/1/4 232/1/4
f 226/4/4 227/4/4 233/4/4
f 232/2/4 226/2/4 233/2/4
f 227/2/4 228/2/4 234/2/4
f 233/4/4 227/4/4 234/4/4
f 228/1/4 229/1/4 235/1/4
f 234/2/4 228/2/4 235/2/4
f 235/1/4 229/1/4 236/1/4
f 230/1/4 213/1/4 237/1/4
f 237/1/4 213/1/4 238/1/4
f 233/2/4 234/2/4 239/2/4
f 234/1/4 235/1/4 240/1/4
f 239/2/4 234/2/4 240/2/4
f 240/1/4 235/1/4 241/1/4
f 232/1/4 233/1/4 243/1/4
f 233/2/4 239/2/4 244/2/4
f 243/1/4 233/1/4 244/1/4
f 239/1/4 240/1/4 245/1/4
f 244/2/4 239/2/4 245/2/4
f 245/1/4 240/1/4 246/1/4
f 242/1/4 243/1/4 247/1/4
f 243/1/4 244/1/4 247/1/4
f 244/1/4 245/1/4 247/1/4
f 247/1/4 245/1/4 248/1/4
f 251/1/5 250/1/5 249/1/5
f 252/1/5 250/1/5 251/1/5
f 255/1/5 254/1/5 253/1/5
f 256/1/5 254/1/5 255/1/5
f 259/1/5 258/1/5 257/1/5
f 260/1/5 258/1/5 259/1/5
f 267/1/5 262/1/5 261/1/5
f 268/1/5 262/1/5 267/1/5
f 269/1/5 264/1/5 263/1/5
f 270/1/5 264/1/5 269/1/5
f 271/1/5 266/1/5 265/1/5
f 272/1/5 266/1/5 271/1/5
f 277/1/5 274/1/5 273/1/5
f 278/1/5 274/1/5 277/1/5
f 279/1/5 276/1/5 275/1/5
f 280/1/5 276/1/5 279/1/5
f 283/1/5 282/1/5 281/1/5
f 284/1/5 282/1/5 283/1/5
f 287/1/5 286/1/5 285/1/5
f 288/1/5 286/1/5 287/1/5
f 291/3/5 290/3/5 289/3/5
f 292/3/5 290/3/5 291/3/5
f 295/1/5 294/1/5 293/1/5
f 296/1/5 294/1/5 295/1/5
f 297/1/6 298/1/6 299/1/6
f 299/1/6 298/1/6 300/1/6
f 301/3/6 302/3/6 303/3/6
f 303/3/6 302/3/6 304/3/6
f 305/1/6 306/1/6 307/1/6
f 307/1/6 306/1/6 308/1/6
f 309/1/6 310/1/6 311/1/6
f 311/1/6 310/1/6 312/1/6
f 313/1/6 314/1/6 317/1/6
f 317/1/6 314/1/6 318/1/6
f 315/1/6 316/1/6 319/1/6
f 319/1/6 316/1/6 320/1/6
f 321/1/6 322/1/6 327/1/6
f 327/1/6 322/1/6 328/1/6
f 323/1/6 324/1/6 329/1/6
f 329/1/6 324/1/6 330/1/6
f 325/1/6 326/1/6 331/1/6
f 331/1/6 326/1/6 332/1/6
f 333/1/6 334/1/6 335/1/6
f 335/1/6 334/1/6 336/1/6
f 337/1/6 338/1/6 339/1/6
f 339/1/6 338/1/6 340/1/6
f 341/1/6 342/1/6 343/1/6
f 343/1/6 342/1/6 344/1/6
